<?xml version="1.0" encoding="utf-8"?>
<!-- Generator: Adobe Illustrator 18.1.1, SVG Export Plug-In . SVG Version: 6.00 Build 0)  -->
<svg version="1.1" id="Layer_1" xmlns="http://www.w3.org/2000/svg" xmlns:xlink="http://www.w3.org/1999/xlink" x="0px" y="0px"
	 viewBox="0 0 32 32" enable-background="new 0 0 32 32" xml:space="preserve">
<path fill="#FFE36E" d="M18.7,32h-5.5c-1.7,0-3-1.3-3-3v-7.3H3c-1.7,0-3-1.3-3-3v-5.5c0-1.7,1.3-3,3-3h7.3V3c0-1.7,1.3-3,3-3h5.5
	c1.7,0,3,1.3,3,3v7.3H29c1.6,0,3,1.3,3,3v5.5c0,1.7-1.3,3-3,3h-5.1v-2.3H29c0.4,0,0.7-0.3,0.7-0.7v-5.5c0-0.4-0.3-0.7-0.7-0.7h-8.4
	c-0.6,0-1.2-0.5-1.2-1.2V3c0-0.4-0.3-0.7-0.7-0.7h-5.5c-0.4,0-0.7,0.3-0.7,0.7v8.4c0,0.6-0.5,1.2-1.2,1.2H3c-0.4,0-0.7,0.3-0.7,0.7
	v5.5c0,0.4,0.3,0.7,0.7,0.7h8.4c0.6,0,1.2,0.5,1.2,1.2V29c0,0.4,0.3,0.7,0.7,0.7h5.5c0.4,0,0.7-0.3,0.7-0.7v-5.2h2.3V29
	C21.7,30.7,20.4,32,18.7,32z"/>
</svg>
