<?xml version="1.0" encoding="utf-8"?>
<!-- Generator: Adobe Illustrator 18.1.1, SVG Export Plug-In . SVG Version: 6.00 Build 0)  -->
<svg version="1.1" id="Layer_1" xmlns="http://www.w3.org/2000/svg" xmlns:xlink="http://www.w3.org/1999/xlink" x="0px" y="0px"
	 viewBox="0 0 256 64" enable-background="new 0 0 256 64" xml:space="preserve">
<g id="logo_1_">
	<path fill-rule="evenodd" clip-rule="evenodd" fill="#FFFFFF" d="M60.7,28.3h4.5v2.5l1.9-2.2c0.5-0.6,1.6-0.7,2.8,0.2l-0.7,3.5
		c-0.7-0.9-1.6-1.5-2.4-1.5c-0.8,0-1.6,0.5-1.6,1.8v3.2c0,1.1,0.4,1.5,1.5,1.6v0.4h-6l0-0.4c1.2,0,1.5-0.4,1.5-1.5v-5.7
		c0-1.1-0.4-1.3-1.6-1.4V28.3L60.7,28.3z"/>
	<path fill-rule="evenodd" clip-rule="evenodd" fill="#FFFFFF" d="M36.4,35c-1.2,1.3-2.9,2.9-5.5,3c-2.6,0.1-6.8-1.4-6.7-6.5
		c0.1-5,4.8-6.4,6.9-6.4c1.6,0,3.7,0.7,3.9,0.7c0.4,0,0.6-0.3,0.7-0.6h0.4l0.1,4.5l-0.5,0.2c-0.2-1.3-0.6-3.8-3.8-3.9
		c-5.6-0.1-5.5,10.2-0.2,10.5c1.1,0.1,3-0.5,4.4-2.2L36.4,35L36.4,35z"/>
	<path fill-rule="evenodd" clip-rule="evenodd" fill="#FFFFFF" d="M56.2,28.4c3,0,5.4,2.1,5.4,4.8c0,2.6-2.4,4.8-5.4,4.8
		c-3,0-5.4-2.1-5.4-4.8C50.7,30.5,53.2,28.4,56.2,28.4L56.2,28.4z M56.1,29.1c1.5,0,2.7,1.8,2.7,4c0,2.2-1.2,4-2.7,4
		c-1.5,0-2.7-1.8-2.7-4C53.4,30.9,54.6,29.1,56.1,29.1L56.1,29.1z"/>
	<path fill-rule="evenodd" clip-rule="evenodd" fill="#FFFFFF" d="M94.5,28.4c3,0,5.4,2.1,5.4,4.8c0,2.6-2.4,4.8-5.4,4.8
		c-3,0-5.4-2.1-5.4-4.8C89.1,30.5,91.5,28.4,94.5,28.4L94.5,28.4z M94.5,29.1c1.5,0,2.7,1.8,2.7,4c0,2.2-1.2,4-2.7,4
		c-1.5,0-2.7-1.8-2.7-4C91.8,30.9,93,29.1,94.5,29.1L94.5,29.1z"/>
	<path fill-rule="evenodd" clip-rule="evenodd" fill="#FFFFFF" d="M50,35.8c0,1.1,0.3,1.4,1.5,1.5v0.4h-5.9v-0.4
		c1.1,0,1.4-0.4,1.4-1.6v-9c-0.1-1-0.3-1.2-1.5-1.3v-0.4H50V35.8L50,35.8z"/>
	<path fill-rule="evenodd" clip-rule="evenodd" fill="#FFFFFF" d="M74.8,32.9l0,2.2c0,1-0.5,1.5-1.4,1.5c-1,0-1.5-0.8-1.5-1.6
		c0-0.5,0.3-1,0.7-1.2L74.8,32.9L74.8,32.9z M69.8,31.8c0.2-2.5,2.3-3.5,4.2-3.5c1.7,0,3.6,1.1,3.6,2.6v4.7c0,0.8,0.4,1.1,1.1,0.8
		c-0.2,0.9-1.2,1.5-1.9,1.5c-0.8,0-1.6-0.4-1.9-1.4c-0.9,0.9-2,1.4-3.1,1.4c-1.8,0.1-2.5-1.2-2.6-2.3c-0.1-1.1,0.6-2,1.9-2.4
		l3.1-0.9c0.8-0.2,0.6-1.5-0.4-1.9C72.3,29.7,70.8,30.4,69.8,31.8L69.8,31.8z"/>
	<path fill-rule="evenodd" clip-rule="evenodd" fill="#FFFFFF" d="M83.8,25.1h4.4v10.8c0,0.7,0.4,1.2,1.3,1.5v0.4h-6.2
		c-3.8,0-5.1-2.1-5.1-4.7c0-2.2,1.7-4.7,4.4-4.7c1,0,2,0.2,2.7,1l0-2.6c0-1.2-0.3-1.2-1.5-1.3V25.1L83.8,25.1z M83.4,29.3
		c1.1,0,1.9,0.4,1.9,1.7v5.1c0,0.5-0.4,1-1.1,1c-1.8,0-3.1-2.1-3.2-4.1C81,31.5,81.7,29.3,83.4,29.3L83.4,29.3z"/>
	<path fill-rule="evenodd" clip-rule="evenodd" fill="#FFFFFF" d="M41,28.4c3,0,5.4,2.1,5.4,4.8c0,2.6-2.4,4.8-5.4,4.8
		c-3,0-5.4-2.1-5.4-4.8C35.6,30.5,38,28.4,41,28.4L41,28.4z M41,29.1c1.5,0,2.7,1.8,2.7,4c0,2.2-1.2,4-2.7,4c-1.5,0-2.7-1.8-2.7-4
		C38.3,30.9,39.5,29.1,41,29.1L41,29.1z"/>
	<path fill="#FFFFFF" d="M214,28.3v7.5c0,1.3,0.5,1.5,1.5,1.5v0.4h-5.8v-0.4c0.6,0,0.9-0.1,1.1-0.4c0.3-0.3,0.3-0.8,0.3-1.4v-4.8
		c0-0.6,0-1.4-0.2-1.6c-0.2-0.2-0.4-0.5-1.4-0.5v-0.4L214,28.3z M211,24.3c0-2,3.3-2,3.3,0C214.3,26.3,211,26.3,211,24.3"/>
	<path fill-rule="evenodd" clip-rule="evenodd" fill="#FFFFFF" d="M193.4,28.3h4.5v2.5l1.9-2.2c0.5-0.6,1.6-0.7,2.8,0.2l-0.7,3.5
		c-0.7-0.9-1.6-1.5-2.4-1.5c-0.8,0-1.6,0.5-1.6,1.8v3.2c0,1.1,0.3,1.5,1.5,1.6v0.4h-6l0-0.4c1.2,0,1.5-0.4,1.5-1.5v-5.7
		c0-1.1-0.4-1.3-1.6-1.4V28.3L193.4,28.3z"/>
	<path fill-rule="evenodd" clip-rule="evenodd" fill="#FFFFFF" d="M184.3,33.5c-0.1-3.3,2.3-5.1,5.4-5.1c2.8,0,4,1.7,4.3,4.1h-6.5
		c-0.1,2.1,1.2,4,2.8,4.1c1.3,0.1,2.4-0.1,3.8-2.1l0.3,0.3c-0.5,1.6-2,3.2-4.8,3.2C187.5,38,184.4,36.6,184.3,33.5L184.3,33.5z
		 M187.5,31.5h3.4c0.1-1.3-0.7-2.4-1.6-2.4C188.5,29.2,187.6,30.1,187.5,31.5L187.5,31.5z"/>
	<path fill="#FFFFFF" d="M162.4,28.3v2.2h0c0.9-1.5,2-2.2,3.5-2.2c0.9,0,1.6,0.3,2.2,0.9c0.6,0.6,0.9,1.4,0.9,2.4v4
		c0,0.6,0.1,1.2,0.4,1.4c0.2,0.2,0.4,0.3,1,0.3v0.4h-5.5v-0.4c0.5,0,0.8-0.1,1.1-0.3c0.3-0.3,0.4-0.8,0.4-1.3V32
		c0-0.7-0.1-1.2-0.4-1.6c-0.3-0.4-0.7-0.6-1.2-0.6c-0.9,0-1.7,0.5-2.3,1.6v4.2c0,0.7,0.1,1.1,0.4,1.5c0.2,0.2,0.4,0.3,0.9,0.3v0.4
		h-5.4v-0.4c0.3,0,0.7-0.1,0.9-0.3c0.4-0.3,0.4-0.9,0.4-1.3v-5.1c0-1.2-0.1-1.4-0.3-1.7c-0.2-0.2-0.6-0.3-1.2-0.3v-0.4h3.9H162.4z"
		/>
	<path fill="#FFFFFF" d="M174.1,28.3v7.5c0,1.3,0.5,1.5,1.5,1.5v0.4h-5.8v-0.4c0.6,0,0.9-0.1,1.1-0.4c0.3-0.3,0.3-0.8,0.3-1.4v-4.8
		c0-0.6,0-1.4-0.2-1.6c-0.2-0.2-0.4-0.5-1.4-0.5v-0.4L174.1,28.3z M171,24.3c0-2,3.3-2,3.3,0C174.3,26.3,171,26.3,171,24.3"/>
	<path fill="#FFFFFF" d="M185.7,28.3v0.4c-0.5,0-0.8,0.2-1.2,0.5c-0.3,0.3-0.7,0.8-1,1.6l-3.3,6.9h-0.5l-3.5-7.1
		c-0.4-0.7-0.7-1.2-1.1-1.5c-0.3-0.3-0.7-0.4-1.2-0.4v-0.4h5.8v0.4c-0.6,0.1-0.9,0.4-0.9,0.8c0,0.2,0.1,0.4,0.2,0.6l2.1,4.2l1.7-3.3
		c0.3-0.5,0.4-0.9,0.4-1.3c0-0.6-0.4-0.9-1.1-1v-0.4H185.7z"/>
	<path fill="#FFFFFF" d="M202.7,37.4v-2.9h0.4c0.9,1.9,2.1,2.8,3.4,2.8c0.5,0,0.8-0.1,1.2-0.4c0.3-0.2,0.5-0.6,0.5-0.9
		c0-0.4-0.1-0.7-0.4-1c-0.3-0.3-1-0.6-2-1c-1.3-0.5-2.1-0.9-2.5-1.4c-0.4-0.4-0.6-1-0.6-1.6c0-0.8,0.3-1.4,0.9-1.9
		c0.6-0.5,1.4-0.8,2.4-0.8c0,0,2.3,0.1,3.5,0.6v2.1H209c-0.3-0.7-0.7-1.2-1.2-1.6c-0.5-0.4-1.1-0.6-1.7-0.6c-0.4,0-0.8,0.1-1.1,0.3
		c-0.3,0.2-0.5,0.4-0.5,0.7c0,0.3,0.1,0.5,0.4,0.7c0.3,0.2,0.8,0.5,1.7,0.8c1.4,0.5,2.3,1,2.7,1.5c0.5,0.5,0.7,1.1,0.7,1.9
		c0,0.9-0.3,1.6-1,2.2c-0.7,0.6-1.5,0.9-2.4,0.9C206.6,37.9,204.8,38,202.7,37.4"/>
	<path fill="#FFFFFF" d="M154.5,37.7v-1.7c-0.8,0.8-1.4,1.3-2,1.6c-0.6,0.3-1.2,0.4-2,0.4c-1.3,0-2.3-0.4-3.1-1.1
		c-0.8-0.8-1.1-1.8-1.1-3v-6.6c0-0.6,0-1.1-0.3-1.4c-0.2-0.2-0.7-0.4-1.2-0.3l0-0.4h4.3l0,9.3c0,0.8,0.2,1.4,0.6,1.8
		c0.4,0.4,1,0.7,1.7,0.7c1,0,2-0.6,3.1-1.8v-7.9c0-1.2-0.1-1.2-0.3-1.5c-0.2-0.2-0.8-0.3-1.1-0.3v-0.4h4.1l0,10.5
		c0,0.8,0.1,1.2,0.3,1.4c0.2,0.2,0.6,0.3,1.3,0.4v0.4H154.5z"/>
	<path fill-rule="evenodd" clip-rule="evenodd" fill="#FFFFFF" d="M132.8,33.5c-0.1-3.3,2.3-5.1,5.4-5.1c2.8,0,4,1.7,4.3,4.1h-6.5
		c-0.1,2.1,1.2,4,2.8,4.1c1.3,0.1,2.4-0.1,3.8-2.1l0.3,0.3c-0.5,1.6-2,3.2-4.8,3.2C136,38,132.9,36.6,132.8,33.5L132.8,33.5z
		 M136,31.5h3.4c0.1-1.3-0.7-2.4-1.6-2.4C137,29.2,136.1,30.1,136,31.5L136,31.5z"/>
	<path fill-rule="evenodd" clip-rule="evenodd" fill="#FFFFFF" d="M130.4,24l0.4,0.1l0,4.3l2.8,0l0,0.9l-2.8,0l0,5.3
		c0,1.9,1.5,2.3,2.7,0.9c0-0.1,0.3,0.4,0.4,0.3c-0.9,1.8-2.5,2.6-4.4,1.9c-0.9-0.4-1.8-1.2-1.8-2.8v-5.6h-1.2l0-0.9
		C128.4,27.8,130,26.7,130.4,24L130.4,24z"/>
	<path fill-rule="evenodd" clip-rule="evenodd" fill="#FFFFFF" d="M112.2,24.1l0,4.2c2.1-0.9,2.8-1.7,3.3-4.3l0.4,0.1l0,4.3h2.8
		l0,0.9h-2.8l0,5c0,1.5,0.8,2.4,2.5,1.5l0.3,0.6c-0.7,1.2-2.3,1.6-3.3,1.5c-1.7-0.1-2.5-1.4-2.5-3.3v-5.4l-1.1,0
		c0-2.7-1.4-5.1-3.5-5.1c-1,0-2.7,0.8-2.7,2.4c0,0.7,0.2,1.2,0.9,1.7l4.4,3.4c1.1,0.8,2.3,3.1,1.6,5.5c-0.6,2-3.1,3.1-5.1,3.2
		c-2.1,0.1-4.1-1.1-5.2-3.1l0.5-0.3c0.8,1.2,2.6,2.4,4.4,2c2-0.5,2.9-3.5,0.8-5.2l-3.8-3.1c-2.6-2.1-1.7-5.6,1-6.8
		C106.3,23.5,109.3,22.9,112.2,24.1L112.2,24.1z"/>
	<path fill-rule="evenodd" clip-rule="evenodd" fill="#FFFFFF" d="M123.5,32.9l0,2.2c0,0.9-0.5,1.5-1.4,1.5c-1,0-1.5-0.8-1.4-1.6
		c0-0.5,0.3-1,0.7-1.2L123.5,32.9L123.5,32.9z M118.6,31.8c0.2-2.5,2.3-3.5,4.1-3.5c1.6,0,3.5,1.1,3.5,2.6v4.7
		c0,0.8,0.4,1.1,1.1,0.8c-0.3,0.9-1.1,1.5-1.9,1.5c-0.8,0-1.5-0.4-1.9-1.4c-0.9,0.9-1.9,1.4-3,1.4c-1.7,0.1-2.4-1.2-2.5-2.3
		c-0.1-1.1,0.6-2,1.9-2.4l3.1-0.9c0.8-0.2,0.6-1.5-0.4-1.9C121.1,29.8,119.6,30.4,118.6,31.8L118.6,31.8z"/>
	<path fill-rule="evenodd" clip-rule="evenodd" fill="#FFFFFF" d="M218.3,24l0.4,0.1l0,4.2l2.8,0l0,1l-2.8,0l0,5.3
		c0,1.9,1.5,2.3,2.7,0.9c0-0.1,0.3,0.4,0.4,0.3c-0.9,1.8-2.5,2.6-4.4,1.9c-0.9-0.4-1.8-1.3-1.8-2.8v-5.7h-1.2l0-0.9
		C216.4,28,217.9,26.6,218.3,24L218.3,24z"/>
	<path fill="#FFFFFF" d="M228,28.3v0.4c0.8,0.2,1.2,0.6,1.2,1.2c0,0.5-0.2,1.1-0.5,1.9l-1.4,3.1l-2.1-4.2c-0.3-0.5-0.4-0.9-0.4-1.2
		c0-0.4,0.3-0.6,1-0.7v-0.4h-6.2v0.4c0.6,0.2,1.1,0.4,1.4,0.6c0.3,0.3,0.7,0.8,1,1.5l3.7,7.5c-0.5,1-0.9,1.7-1.4,2.2
		c-0.6,0.7-1.4,1-2.3,1c-0.4,0-0.9-0.1-1.4-0.2l-0.6,2.9c0.2,0,0.5,0,0.9,0c1.1,0,1.9-0.2,2.6-0.7c0.6-0.5,1.2-1.3,1.8-2.5l4.5-9.9
		c0.4-0.9,0.8-1.5,1.1-1.8c0.3-0.3,0.7-0.5,1.4-0.7v-0.4H228z"/>
</g>
</svg>
