<!-- Copyright © 2015 MODULUS Sp. z o. o. / FUTURAMO™ --><svg xmlns="http://www.w3.org/2000/svg" x="0px" y="0px" width="64px" height="64px" viewBox="0 0 32 32"><path fill="#FFFFFF" d="M24,16c-4.412,0-8,3.588-8,8s3.588,8,8,8h6v-2h-6c-3.309,0-6-2.691-6-6s2.691-6,6-6s6,2.691,6,6v1 c0,0.551-0.449,1-1,1s-1-0.449-1-1v-1c0-2.209-1.791-4-4-4s-4,1.791-4,4s1.791,4,4,4c1.052,0,2.002-0.415,2.716-1.078 C27.267,27.575,28.08,28,29,28c1.654,0,3-1.346,3-3v-1C32,19.588,28.412,16,24,16z M24,26c-1.103,0-2-0.897-2-2s0.897-2,2-2 s2,0.897,2,2S25.103,26,24,26z M8,8H6V6h2V8z M6,14h2v2H6V14z M8,12H6v-2h2V12z M10,14h8v2h-8V14z M22,12H10v-2h12V12z M22,8H10V6 h12V8z M4,24h10v4H0V0h28v14h-4V4H4V24z"></path></svg>