<?xml version="1.0" encoding="utf-8"?>
<!-- Generator: Adobe Illustrator 18.1.1, SVG Export Plug-In . SVG Version: 6.00 Build 0)  -->
<svg version="1.1" id="Layer_1" xmlns="http://www.w3.org/2000/svg" xmlns:xlink="http://www.w3.org/1999/xlink" x="0px" y="0px"
	 viewBox="-6.6 0.6 64 64" enable-background="new -6.6 0.6 64 64" xml:space="preserve">
<g>
	<path fill="#FFFFFF" d="M25.4,16c-9,0-16.5,7.4-16.5,16.5S16.2,49,25.4,49s16.5-7.5,16.5-16.5S34.4,16,25.4,16z M25.4,43.1
		c-5.8,0-10.6-4.8-10.6-10.6s4.8-10.6,10.6-10.6s10.6,4.8,10.6,10.6S31.2,43.1,25.4,43.1z"/>
	<circle fill="#FFFFFF" cx="42.5" cy="15.6" r="3.7"/>
	<path fill="#FFFFFF" d="M52.2,5.9c-3.4-3.5-8.1-5.3-13.5-5.3H12.1C0.8,0.6-6.6,8.1-6.6,19.4v26.5c0,5.5,1.8,10.3,5.4,13.8
		c3.5,3.4,8.1,5,13.4,5h26.3c5.5,0,10.2-1.8,13.5-5c3.5-3.4,5.3-8.1,5.3-13.7V19.4C57.3,13.9,55.5,9.3,52.2,5.9z M51.4,45.9
		c0,4-1.2,7.2-3.5,9.4c-2.3,2.2-5.5,3.4-9.4,3.4H12.2c-3.9,0-7.1-1.2-9.4-3.4c-2.3-2.3-3.5-5.5-3.5-9.5V19.4c0-3.9,1.2-7.1,3.5-9.4
		C5,7.7,8.3,6.6,12.2,6.6h26.6c3.9,0,7.1,1.2,9.4,3.5c2.2,2.3,3.5,5.5,3.5,9.3v26.6H51.4z"/>
</g>
</svg>
