<?xml version="1.0" encoding="utf-8"?>
<!-- Generator: Adobe Illustrator 18.1.1, SVG Export Plug-In . SVG Version: 6.00 Build 0)  -->
<svg version="1.1" id="Layer_1" xmlns="http://www.w3.org/2000/svg" xmlns:xlink="http://www.w3.org/1999/xlink" x="0px" y="0px"
	 viewBox="0 0 32 32" enable-background="new 0 0 32 32" xml:space="preserve">
<path fill="#FFFFFF" d="M16.7,0C8,0,3.7,6.2,3.7,11.4c0,3.1,1.1,5.5,3.3,6.7c0.4,0.2,1,0.5,1,0.5l0.9-2.5c0,0-0.5-0.6-0.8-1.1
	c-0.6-0.9-0.9-1.5-0.9-3.1c0-4.6,3.5-8.8,9-8.8c4.9,0,7.6,3,7.6,7c0,5.3-2.3,9.8-5.8,9.8c-1.9,0-3.3-1.6-2.9-3.5
	c0.5-2.3,1.6-4.8,1.6-6.5c0-1.5-0.8-2.7-2.5-2.7c-1.9,0-3.5,2-3.5,4.7c0,1.7,0.6,2.9,0.6,2.9s-2.2,8.4-2.3,10
	C8.8,28,9.7,31.6,9.7,32c0,0,2.3-3.2,3.1-6.1c0.2-0.8,1.3-5,1.3-5c0.7,1.2,2.5,2.3,4.4,2.3c5.9,0,9.9-5.4,9.9-12.5
	C28.3,5,23.7,0,16.7,0z"/>
</svg>
