<?xml version="1.0" encoding="utf-8"?>
<!-- Generator: Adobe Illustrator 18.1.1, SVG Export Plug-In . SVG Version: 6.00 Build 0)  -->
<svg version="1.1" id="Layer_1" xmlns="http://www.w3.org/2000/svg" xmlns:xlink="http://www.w3.org/1999/xlink" x="0px" y="0px"
	 viewBox="0 0 48 48" enable-background="new 0 0 48 48" xml:space="preserve">
<g>
	<path fill="#FFFFFF" d="M1.6,27.2c-1.3-0.3-1.8-1.2-1.5-2.7c0.3-1.3,1.2-1.8,2.6-1.5l4.7,1.1L4.9,28L1.6,27.2z M20.8,17.2L4,43.6
		c-0.4,0.7-1,1.1-1.8,1.1c-0.4,0-0.8-0.1-1.1-0.4c-0.5-0.3-0.8-0.8-1-1.4c-0.1-0.6,0-1.1,0.3-1.6l17.9-28.1c0.3-0.5,0.7-0.8,1.3-1
		c0.6-0.2,1.1-0.1,1.7,0.3l11.8,7.5L43.9,4.3c0.3-0.5,0.8-0.8,1.3-0.9c0.6-0.1,1.1,0,1.6,0.4c1.2,0.8,1.4,1.8,0.6,3L35.4,24.1
		c-0.8,1.1-1.8,1.3-3,0.6L20.8,17.2z M44.2,27.8c0.4-0.4,1-0.6,1.6-0.5c0.6,0,1.1,0.3,1.5,0.7c1,1,1,2-0.1,3.1L35.1,41.8
		c-0.4,0.4-0.9,0.6-1.4,0.6c-0.4,0-0.9-0.2-1.3-0.5L18.7,31.4l-2.6-0.7l2.4-3.8l1.7,0.4c0.4,0.1,0.6,0.3,0.8,0.4l12.6,9.8L44.2,27.8
		z"/>
</g>
</svg>
