<?xml version="1.0" encoding="utf-8"?>
<!-- Generator: Adobe Illustrator 18.1.1, SVG Export Plug-In . SVG Version: 6.00 Build 0)  -->
<svg version="1.1" id="Layer_1" xmlns="http://www.w3.org/2000/svg" xmlns:xlink="http://www.w3.org/1999/xlink" x="0px" y="0px"
	 viewBox="0 0 32 32" enable-background="new 0 0 32 32" xml:space="preserve">
<path opacity="0.9" fill="#FFFFFF" d="M23,9v14H8V9H23 M24,8H7v16h17V8L24,8z"/>
<path fill="#FFFFFF" d="M14,14h-1v-1h1V14z M18,13h-1v1h1V13z M10,15H9v1h1V15z M16,15h-1v1h1V15z M20,15h-1v1h1V15z M22,15h-1v1h1
	V15z M12,17h-1v1h1V17z M16,17h-1v1h1V17z M12,19h-1v1h1V19z M18,19h-1v1h1V19z M20,19h-1v1h1V19z M22,19h-1v1h1V19z M10,21H9v1h1
	V21z M14,21h-1v1h1V21z"/>
<path opacity="0.5" fill="#FFFFFF" d="M16,14h-1v-1h1V14z M20,13h-1v1h1V13z M22,13h-1v1h1V13z M12,15h-1v1h1V15z M14,15h-1v1h1V15z
	 M18,15h-1v1h1V15z M10,17H9v1h1V17z M14,17h-1v1h1V17z M18,17h-1v1h1V17z M20,17h-1v1h1V17z M22,17h-1v1h1V17z M10,19H9v1h1V19z
	 M14,19h-1v1h1V19z M16,19h-1v1h1V19z M12,21h-1v1h1V21z M16,21h-1v1h1V21z"/>
<path opacity="0.25" fill="#FFFFFF" d="M10,14H9v-1h1V14z M12,13h-1v1h1V13z M18,21h-1v1h1V21z M20,21h-1v1h1V21z M22,21h-1v1h1V21z
	"/>
<rect x="8" y="9" opacity="0.45" fill="#FFFFFF" width="15" height="3"/>
</svg>
