<?xml version="1.0" encoding="utf-8"?>
<!-- Generator: Adobe Illustrator 18.1.1, SVG Export Plug-In . SVG Version: 6.00 Build 0)  -->
<svg version="1.1" id="Layer_1" xmlns="http://www.w3.org/2000/svg" xmlns:xlink="http://www.w3.org/1999/xlink" x="0px" y="0px"
	 viewBox="-459 501 24 24" enable-background="new -459 501 24 24" xml:space="preserve">
<path fill="#FFFFFF" d="M-450.2,504.2c3.1,0,5.6,2.5,5.6,5.6c0,3.1-2.5,5.6-5.6,5.6c-3.1,0-5.6-2.5-5.6-5.6
	C-455.8,506.7-453.3,504.2-450.2,504.2 M-450.2,501c-4.9,0-8.8,3.9-8.8,8.8s3.9,8.8,8.8,8.8c4.9,0,8.8-3.9,8.8-8.8
	S-445.3,501-450.2,501L-450.2,501z M-444,518.2l6.8,6.8l2.2-2.2l-6.8-6.8L-444,518.2z"/>
</svg>
