<?xml version="1.0" encoding="utf-8"?>
<!-- Generator: Adobe Illustrator 18.1.1, SVG Export Plug-In . SVG Version: 6.00 Build 0)  -->
<svg version="1.1" id="Layer_1" xmlns="http://www.w3.org/2000/svg" xmlns:xlink="http://www.w3.org/1999/xlink" x="0px" y="0px"
	 viewBox="0 0 24 24" enable-background="new 0 0 24 24" xml:space="preserve">
<polygon fill="#FFFFFF" points="0,16 2.5,13 4,13 2.5,16 "/>
<polygon fill="#FFFFFF" points="24,16 21.5,13 20,13 21.5,16 "/>
<path fill="#FFFFFF" d="M0,16v7h24v-7H0z M16,20H8v-1h8V20z"/>
<polygon fill="#FFFFFF" points="5,1 5,15 6,15 6,2 18,2 18,15 19,15 19,1 "/>
<rect x="6" y="2" opacity="0.18" fill="#FFFFFF" width="12" height="13"/>
<rect x="8" y="4" fill="#FFFFFF" width="1" height="1"/>
<rect x="8" y="6" fill="#FFFFFF" width="1" height="1"/>
<rect x="8" y="8" fill="#FFFFFF" width="1" height="1"/>
<rect x="8" y="10" fill="#FFFFFF" width="1" height="1"/>
<rect x="8" y="12" fill="#FFFFFF" width="1" height="1"/>
<rect x="10" y="4" fill="#FFFFFF" width="5" height="1"/>
<rect x="10" y="6" fill="#FFFFFF" width="6" height="1"/>
<rect x="10" y="8" fill="#FFFFFF" width="3" height="1"/>
<rect x="10" y="10" fill="#FFFFFF" width="4" height="1"/>
<rect x="10" y="12" fill="#FFFFFF" width="5" height="1"/>
</svg>
