<?xml version="1.0" encoding="utf-8"?>
<!-- Generator: Adobe Illustrator 18.1.1, SVG Export Plug-In . SVG Version: 6.00 Build 0)  -->
<svg version="1.1" xmlns="http://www.w3.org/2000/svg" xmlns:xlink="http://www.w3.org/1999/xlink" x="0px" y="0px"
	 viewBox="0 0 48 48" enable-background="new 0 0 48 48" xml:space="preserve">
<g id="base" display="none">
	<rect display="inline" fill="#1A1A1A" width="48" height="48"/>
</g>
<g id="icon">
	<g display="none">
		<path display="inline" fill="#FFFFFF" d="M47.2,8.5c0,0.5-0.2,1-0.5,1.3L9,47.5C8.6,47.8,8.2,48,7.7,48c-0.5,0-1-0.2-1.3-0.5
			l-5.8-5.8C0.2,41.3,0,40.9,0,40.3s0.2-1,0.5-1.3L38.2,1.3C38.6,1,39,0.8,39.5,0.8c0.5,0,1,0.2,1.3,0.5l5.8,5.8
			C47,7.5,47.2,7.9,47.2,8.5z M7.6,2.9l2.8,0.8L7.6,4.6L6.7,7.5L5.8,4.6L2.9,3.7l2.9-0.8L6.7,0L7.6,2.9z M17.9,7.6l5.7,1.8l-5.7,1.7
			l-1.8,5.7l-1.7-5.7L8.6,9.4l5.7-1.8l1.7-5.7L17.9,7.6z M26.4,2.9l2.8,0.8l-2.8,0.9l-0.9,2.9l-0.9-2.9l-2.8-0.9l2.8-0.8L25.5,0
			L26.4,2.9z M34.1,17l8.6-8.6l-3.1-3.1l-8.6,8.6L34.1,17z M45.1,21.6l2.9,0.9l-2.9,0.8l-0.9,2.9l-0.9-2.9l-2.8-0.8l2.8-0.9l0.9-2.9
			L45.1,21.6z"/>
	</g>
	<g display="none">
		<path display="inline" fill="#FFFFFF" d="M7,6v4H0V6H7z M27,22v4H0v-4H27z M11,38v4H0v-4H11z M18,2c0.6,0,1,0.2,1.5,0.6
			C19.8,2.9,20,3.4,20,4v8c0,0.6-0.2,1-0.6,1.5C19.1,13.8,18.6,14,18,14h-8c-0.6,0-1-0.2-1.5-0.6C8.2,13,8,12.6,8,12V4
			c0-0.6,0.2-1,0.6-1.5C8.9,2.1,9.4,2,10,2H18z M22,34c0.5,0,1,0.2,1.4,0.6S24,35.5,24,36v8c0,0.5-0.2,1-0.6,1.4
			C23,45.8,22.5,46,22,46h-8c-0.5,0-1-0.2-1.4-0.6C12.2,45,12,44.5,12,44v-8c0-0.6,0.2-1,0.6-1.4C13,34.2,13.5,34,14,34H22z M48,6v4
			H21V6H48z M48,38v4H25v-4H48z M38,18c0.5,0,1,0.2,1.4,0.6c0.4,0.4,0.6,0.8,0.6,1.4v8c0,0.6-0.2,1-0.6,1.4C39.1,29.8,38.6,30,38,30
			h-8c-0.6,0-1-0.2-1.4-0.6C28.2,29,28,28.5,28,28v-8c0-0.5,0.2-1,0.6-1.4C29,18.2,29.5,18,30,18H38z M48,22v4h-7v-4H48z"/>
	</g>
	<g>
		<path fill="#FFFFFF" d="M0.5,23.4c0.1-3.9,1.2-7.5,3.1-10.9S8.2,6.3,11.8,4h0.1v0c-0.2,0.2-0.4,0.5-0.8,0.9
			c-0.4,0.4-0.8,1.1-1.4,2.1C9.2,8,8.6,9,8.2,10c-0.5,1-0.9,2.2-1.2,3.6s-0.4,2.8-0.4,4c0.1,1.3,0.4,2.7,1.1,4.2s1.6,2.9,2.9,4.1
			c0.9,0.9,1.8,1.5,2.7,1.9c0.9,0.4,1.7,0.4,2.4,0.3s1.3-0.4,1.9-0.6s1-0.5,1.2-0.9l0.4-0.4c0.7-0.9,1.1-2,1.4-3.1s0.3-2.3,0.2-3.3
			c-0.1-1.1-0.3-2-0.6-2.8c-0.3-0.8-0.5-1.6-0.7-2.2l-0.3-0.8c-0.2-0.4-0.5-0.9-0.8-1.3c-0.4-0.4-0.7-0.8-1.1-1.1
			c-0.4-0.3-0.8-0.5-1.2-0.8l-0.9-0.5l-0.3-0.1l2.8-3.1c0.7,0.3,1.4,0.8,2.1,1.4c0.7,0.6,1.2,1.2,1.6,1.6l0.5,0.7
			c0-0.9-0.2-1.8-0.5-2.8c-0.4-1-0.7-1.8-1.1-2.4l-0.5-0.8L23.9,0l4.3,4.8c-0.6,0.8-1.1,1.7-1.4,2.7c-0.4,1-0.5,1.8-0.6,2.4
			l-0.1,0.9c0.4-0.7,0.9-1.3,1.6-1.9c0.7-0.6,1.3-1.1,1.8-1.4l0.7-0.4l2.8,3.1c-0.8,0.3-1.6,0.7-2.3,1.3c-0.7,0.6-1.3,1.2-1.6,1.7
			L28.6,14c-0.5,1-1,2.2-1.3,3.6s-0.4,2.9-0.2,4.6c0.2,1.7,0.7,3.1,1.5,4.2c0.6,0.8,1.3,1.3,2.1,1.6c0.8,0.3,1.5,0.3,2.3,0.1
			c0.8-0.2,1.4-0.4,2-0.7c0.6-0.3,1.1-0.6,1.5-0.9l0.6-0.4c1.1-1,2-2,2.6-3.1c0.6-1.1,1.1-2.2,1.3-3.2c0.2-1,0.3-2.1,0.3-3.3
			c0-1.2-0.2-2.2-0.5-3.2c-0.3-1-0.6-1.9-1-2.9c-0.4-1-0.8-1.8-1.2-2.5c-0.4-0.7-0.8-1.3-1.2-1.9l-0.9-1.3l-0.3-0.4
			C35.9,4.1,35.9,4,36,4l0.3,0C37,4.5,37.5,5,37.9,5.3s0.9,0.8,1.7,1.3s1.3,1.1,1.7,1.5c0.4,0.4,0.9,1,1.5,1.7
			c0.6,0.7,1.1,1.4,1.5,2.1s0.8,1.5,1.2,2.4s0.8,1.8,1,2.7c0.2,0.9,0.4,1.9,0.6,3.1s0.3,2.4,0.3,3.6c0.1,4.6-0.9,8.8-2.9,12.5
			c-2,3.7-4.8,6.5-8.4,8.6C32.7,47,28.6,48,24,48c-3.3,0-6.4-0.7-9.4-2c-3-1.3-5.5-3.1-7.6-5.3c-2.1-2.2-3.7-4.8-4.9-7.8
			C0.9,29.9,0.4,26.8,0.5,23.4z"/>
	</g>
</g>
</svg>
