<?xml version="1.0" encoding="utf-8"?>
<!-- Generator: Adobe Illustrator 18.1.1, SVG Export Plug-In . SVG Version: 6.00 Build 0)  -->
<svg version="1.1" id="Layer_1" xmlns="http://www.w3.org/2000/svg" xmlns:xlink="http://www.w3.org/1999/xlink" x="0px" y="0px"
	 viewBox="0 0 24 24" enable-background="new 0 0 24 24" xml:space="preserve">
<g>
	<path fill="#FFFFFF" d="M16.5,17.2h0.7c2.1,0,3.4-1,3.8-3.1L22.8,4C23,3,22.9,2.2,22.5,1.7c-0.4-0.5-1.2-0.7-2.3-0.7H8
		c-1.1,0-2,0.2-2.6,0.7S4.4,3,4.2,4L1.2,20C1,21,1.1,21.8,1.5,22.3c0.4,0.5,1.2,0.7,2.3,0.7h14.7L18.4,24H3.6c-2.8,0-4-1.4-3.5-4.1
		l3-15.9C3.3,2.7,3.9,1.7,4.7,1C5.5,0.3,6.6,0,8,0h12.4c1.4,0,2.4,0.3,3,1c0.6,0.7,0.7,1.7,0.5,3.1l-1.9,10
		c-0.3,1.4-0.8,2.4-1.6,3.1c-0.8,0.7-1.9,1-3.4,1h-0.8L16.5,17.2z"/>
	<path fill="#FFFFFF" d="M16.4,18.2h-2.7l-0.2-2c-0.6,0.7-1.3,1.2-2,1.6c-0.7,0.4-1.5,0.6-2.5,0.6c-1.3,0-2.3-0.3-2.8-0.9
		c-0.5-0.6-0.7-1.6-0.4-3l0.8-4.9c0.2-1.3,0.7-2.3,1.4-3C8.9,6,9.9,5.6,11.2,5.6c1,0,1.8,0.2,2.3,0.6c0.5,0.4,1,0.9,1.4,1.6l0.9-2
		h2.5l-1.8,10.6 M13.9,14.4l0.8-4.7c-1-0.9-2.1-1.3-3.4-1.3c-0.5,0-0.9,0.1-1.1,0.3C10,8.7,9.8,9,9.7,9.5l-0.9,5
		c-0.1,0.4,0,0.8,0.1,0.9c0.2,0.2,0.5,0.3,1,0.3C11.3,15.7,12.6,15.3,13.9,14.4z"/>
</g>
</svg>
