<?xml version="1.0" encoding="utf-8"?>
<!-- Generator: Adobe Illustrator 18.1.1, SVG Export Plug-In . SVG Version: 6.00 Build 0)  -->
<svg version="1.1" id="Layer_1" xmlns="http://www.w3.org/2000/svg" xmlns:xlink="http://www.w3.org/1999/xlink" x="0px" y="0px"
	 viewBox="0 0 24 24" enable-background="new 0 0 24 24" xml:space="preserve">
<g>
	<path fill="#FFFFFF" d="M24,8c0,0.2-0.1,0.3-0.2,0.3L12.1,12c0,0-0.1,0-0.1,0c0,0-0.1,0-0.1,0L5.1,9.8c-0.3,0.2-0.5,0.6-0.7,1.2
		c-0.2,0.5-0.3,1.2-0.4,1.8c0.4,0.2,0.7,0.6,0.7,1.1c0,0.5-0.2,0.9-0.6,1.1l0.6,4.5c0,0.1,0,0.2-0.1,0.3C4.5,20,4.4,20,4.3,20h-2
		c-0.1,0-0.2,0-0.3-0.1S2,19.7,2,19.6l0.6-4.5C2.2,14.9,2,14.5,2,14c0-0.5,0.2-0.9,0.7-1.1c0.1-1.4,0.4-2.6,1-3.4L0.2,8.3
		C0.1,8.3,0,8.2,0,8c0-0.2,0.1-0.3,0.2-0.3L11.9,4c0,0,0.1,0,0.1,0c0,0,0.1,0,0.1,0l11.7,3.7C23.9,7.7,24,7.8,24,8z M18.5,11.4
		l0.2,3.3c0,0.5-0.3,0.9-0.9,1.3c-0.6,0.4-1.4,0.7-2.4,1s-2.2,0.4-3.4,0.4c-1.2,0-2.3-0.1-3.4-0.4s-1.8-0.6-2.4-1
		c-0.6-0.4-0.9-0.8-0.9-1.3l0.2-3.3l6,1.9c0.2,0,0.3,0.1,0.5,0.1s0.4,0,0.5-0.1L18.5,11.4z"/>
</g>
</svg>
