<?xml version="1.0" encoding="utf-8"?>
<!-- Generator: Adobe Illustrator 18.1.1, SVG Export Plug-In . SVG Version: 6.00 Build 0)  -->
<svg version="1.1" id="Layer_1" xmlns="http://www.w3.org/2000/svg" xmlns:xlink="http://www.w3.org/1999/xlink" x="0px" y="0px"
	 viewBox="500 500 24 24" enable-background="new 500 500 24 24" xml:space="preserve">
<g>
	<path opacity="0.6" fill="#FFFFFF" enable-background="new    " d="M516.5,516.2c-0.4-1-3-1.7-4.9-2.6c-0.4-0.2-0.7-0.5-0.9-0.8
		V511c0.8-1.1,1.3-2.6,1.7-4.4c0.7-3-1.7-5.8-3.8-5.8c-2.1,0-4.4,2.8-3.8,5.7c0.4,1.8,0.9,3.3,1.7,4.4v1.8c-0.3,0.3-0.5,0.6-0.9,0.8
		c-1.9,0.9-4.5,1.6-4.9,2.6c-0.4,1-0.6,2.8-0.6,2.8h17C517,519,516.9,517.2,516.5,516.2z"/>
	<path fill="#FFFFFF" d="M523.4,520.3c-0.4-1-3.1-1.6-5.3-2.6c-0.8-0.4-0.6-2.5-0.6-2.5c3.4-0.1,4.2-2.3,4.2-2.3
		c-1.1,0-2.1-0.8-2.7-1.6c0.1-0.2,0.1-0.4,0.2-0.6c0.6-3-1.7-5.7-3.8-5.7c-2.1,0-4.4,2.8-3.8,5.7c0.1,0.2,0.1,0.4,0.2,0.6
		c-0.6,0.9-1.6,1.6-2.7,1.6c0,0,0.9,2.2,4.2,2.3c0,0,0.3,2.1-0.6,2.5c-2.2,1.1-4.9,1.6-5.3,2.6s-0.6,2.8-0.6,2.8h8.5h8.5
		C524,523.1,523.8,521.3,523.4,520.3z"/>
</g>
</svg>
