<?xml version="1.0" encoding="utf-8"?>
<!-- Generator: Adobe Illustrator 18.1.1, SVG Export Plug-In . SVG Version: 6.00 Build 0)  -->
<svg version="1.1" id="Layer_1" xmlns="http://www.w3.org/2000/svg" xmlns:xlink="http://www.w3.org/1999/xlink" x="0px" y="0px"
	 viewBox="0 0 24 24" enable-background="new 0 0 24 24" xml:space="preserve">
<circle fill="#FFFFFF" cx="12" cy="12" r="2"/>
<g>
	<path fill="#FFFFFF" d="M5.6,5.6C4,7.3,3,9.5,3,12c0,2.5,1,4.7,2.6,6.4l0.7-0.7C4.9,16.2,4,14.2,4,12c0-2.2,0.9-4.2,2.3-5.7
		L5.6,5.6z"/>
	<path fill="#FFFFFF" d="M18.4,5.6l-0.7,0.7C19.1,7.8,20,9.8,20,12c0,2.2-0.9,4.2-2.3,5.7l0.7,0.7C20,16.7,21,14.5,21,12
		C21,9.5,20,7.3,18.4,5.6z"/>
</g>
<g>
	<path fill="#FFFFFF" d="M20.5,20.5c2.2-2.2,3.5-5.2,3.5-8.5c0-3.3-1.3-6.3-3.5-8.5l-0.7,0.7c2,2,3.2,4.7,3.2,7.8s-1.2,5.8-3.2,7.8
		L20.5,20.5z"/>
	<path fill="#FFFFFF" d="M4.2,19.8C2.2,17.8,1,15,1,12s1.2-5.8,3.2-7.8L3.5,3.5C1.3,5.7,0,8.7,0,12c0,3.3,1.3,6.3,3.5,8.5L4.2,19.8z
		"/>
</g>
<g>
	<path fill="#FFFFFF" d="M16.2,16.2c1.1-1.1,1.8-2.6,1.8-4.2s-0.7-3.2-1.8-4.2l-0.7,0.7C16.4,9.4,17,10.6,17,12
		c0,1.4-0.6,2.6-1.5,3.5L16.2,16.2z"/>
	<path fill="#FFFFFF" d="M8.5,15.5C7.6,14.6,7,13.4,7,12c0-1.4,0.6-2.6,1.5-3.5L7.8,7.8C6.7,8.8,6,10.3,6,12s0.7,3.2,1.8,4.2
		L8.5,15.5z"/>
</g>
</svg>
