<?xml version="1.0" encoding="utf-8"?>
<!-- Generator: Adobe Illustrator 18.1.1, SVG Export Plug-In . SVG Version: 6.00 Build 0)  -->
<svg version="1.1" id="Layer_1" xmlns="http://www.w3.org/2000/svg" xmlns:xlink="http://www.w3.org/1999/xlink" x="0px" y="0px"
	 viewBox="0 0 48 48" enable-background="new 0 0 48 48" xml:space="preserve">
<g>
	<path fill="#FFFFFF" d="M46,14.2c1.1,1,1.7,1.8,1.9,2.3c0.2,0.6,0.2,1.5,0,2.6l-3.7,22c-0.1,0.7-0.5,1.3-1,1.7
		c-0.5,0.4-1,0.7-1.4,0.7H7c-1.7,0-2.7-0.8-2.9-2.4c-0.2-0.8-0.8-4.5-1.9-10.9S0.5,20.1,0.3,19.1C0,18.4-0.1,17.7,0.1,17
		c0.2-0.7,0.4-1.1,0.5-1.3c0.1-0.1,0.4-0.5,1-1l2-2v3.9h40.9v-3.9L46,14.2z M41.1,11.8v2.4H7v-2.4c0-0.7,0.2-1.3,0.6-1.7
		c0.4-0.4,0.8-0.7,1.2-0.7h29.8c0.2,0,0.4,0,0.7,0c0.3,0,0.6,0.3,1.1,0.7C40.9,10.5,41.1,11,41.1,11.8z M33.9,4.4c0.2,0,0.4,0,0.7,0
		c0.3,0,0.6,0.3,1.1,0.7c0.5,0.4,0.7,1,0.7,1.7H11.9c0-0.7,0.2-1.3,0.6-1.7c0.4-0.4,0.8-0.7,1.2-0.7H33.9z M33.9,27.4v-4.9h-3.4v3.9
		H17.7v-3.9h-3.3v4.9c0,1.6,0.8,2.4,2.3,2.4h14.7c0.7,0,1.3-0.2,1.7-0.6c0.4-0.4,0.6-0.8,0.6-1.2L33.9,27.4z"/>
</g>
</svg>
