<?xml version="1.0" encoding="utf-8"?>
<!-- Generator: Adobe Illustrator 18.1.1, SVG Export Plug-In . SVG Version: 6.00 Build 0)  -->
<svg version="1.1" id="Layer_1" xmlns="http://www.w3.org/2000/svg" xmlns:xlink="http://www.w3.org/1999/xlink" x="0px" y="0px"
	 viewBox="0 0 24 24" enable-background="new 0 0 24 24" xml:space="preserve">
<g>
	<g display="none">
		<polygon display="inline" fill="#FFFFFF" points="2.3,23 21.7,23 12,15.8 		"/>
		<polygon display="inline" fill="#FFFFFF" points="14.2,16.2 23,22.8 23,10.2 14.7,16.5 		"/>
		<polygon display="inline" fill="#FFFFFF" points="1.3,9.2 10.2,15.9 12,14.5 13.8,15.9 22.7,9.2 12,1.2 		"/>
		<polygon display="inline" fill="#FFFFFF" points="1,22.8 9.8,16.2 9.3,16.5 1,10.2 		"/>
	</g>
	<g display="none" opacity="0.17">
		<path display="inline" fill="#FFFFFF" d="M12,0L0,9v0.5v14V24h1h22h1v-0.5v-14V9L12,0L12,0z M10.2,15.9L1.3,9.2l10.7-8l10.7,8
			l-8.8,6.6L12,14.5L10.2,15.9L10.2,15.9z M14.7,16.5l8.3-6.2v12.5l-8.8-6.6L14.7,16.5L14.7,16.5z M1,22.8V10.2l8.3,6.2l0.4-0.3
			L1,22.8L1,22.8z M2.3,23l9.7-7.2l9.7,7.2H2.3L2.3,23z"/>
	</g>
	<g id="shapes">
		<polygon fill="#FFFFFF" points="2.3,23 21.7,23 12,15.8 		"/>
		<polyline fill="#FFFFFF" points="23,22.8 23,10.2 14.7,16.5 		"/>
		<polygon display="none" fill="#FFFFFF" points="1.3,9.2 10.2,15.9 12,14.5 13.8,15.9 22.7,9.2 12,1.2 		"/>
		<polyline fill="#FFFFFF" points="9.3,16.5 1,10.2 1,22.8 		"/>
	</g>
	<g id="top">
		<polygon fill="#FFFFFF" points="15.7,4 12,1.2 8.3,4 		"/>
		<polyline fill="#FFFFFF" points="22.7,9.2 20,7.2 20,11.2 		"/>
		<polyline fill="#FFFFFF" points="4,11.2 4,7.2 1.3,9.2 		"/>
	</g>
	<polygon id="paper" opacity="0.37" fill="#FFFFFF" points="10.2,15.9 12,14.5 13.8,15.9 20,11.2 20,4 4,4 4,11.2 	"/>
	<path id="text" fill="#FFFFFF" d="M17,8H7V7h10V8z M17,9H7v1h10V9z M17,11H7v1h10V11z"/>
</g>
</svg>
