<?xml version="1.0" encoding="utf-8"?>
<!-- Generator: Adobe Illustrator 18.1.1, SVG Export Plug-In . SVG Version: 6.00 Build 0)  -->
<svg version="1.1" id="Layer_1" xmlns="http://www.w3.org/2000/svg" xmlns:xlink="http://www.w3.org/1999/xlink" x="0px" y="0px"
	 viewBox="0 0 48 48" enable-background="new 0 0 48 48" xml:space="preserve">
<circle opacity="0.5" fill="#0A3321" cx="24" cy="24" r="16"/>
<path fill="#D7D392" d="M24,9.3c8.1,0,14.7,6.5,14.7,14.7S32.1,38.7,24,38.7S9.3,32.1,9.3,24S15.9,9.3,24,9.3 M24,8
	C15.2,8,8,15.2,8,24s7.2,16,16,16s16-7.2,16-16S32.8,8,24,8L24,8z"/>
<path fill="#FFFFFF" d="M21.3,21.3L16,32l10.7-5.3L32,16L21.3,21.3z M24,25.3c-0.8,0-1.3-0.5-1.3-1.3s0.5-1.3,1.3-1.3
	s1.3,0.5,1.3,1.3S24.8,25.3,24,25.3z"/>
</svg>
