<?xml version="1.0" encoding="utf-8"?>
<!-- Generator: Adobe Illustrator 18.1.1, SVG Export Plug-In . SVG Version: 6.00 Build 0)  -->
<svg version="1.1" id="Layer_1" xmlns="http://www.w3.org/2000/svg" xmlns:xlink="http://www.w3.org/1999/xlink" x="0px" y="0px"
	 viewBox="0 0 24 24" enable-background="new 0 0 24 24" xml:space="preserve">
<path fill="#FFFFFF" d="M20,3V0h-3v3H7V0H4v3H0v21h24V3H20z M18,1h1v3h-1V1z M5,1h1v3H5V1z M23,23H1V7h22V23z"/>
<rect x="2" y="8" opacity="0.2" fill="#FFFFFF" width="2" height="2"/>
<rect x="5" y="8" opacity="0.2" fill="#FFFFFF" width="2" height="2"/>
<rect x="8" y="8" opacity="0.2" fill="#FFFFFF" width="2" height="2"/>
<rect x="11" y="8" opacity="0.5" fill="#FFFFFF" width="2" height="2"/>
<rect x="14" y="8" opacity="0.5" fill="#FFFFFF" width="2" height="2"/>
<rect x="17" y="8" opacity="0.5" fill="#FFFFFF" width="2" height="2"/>
<rect x="20" y="8" opacity="0.5" fill="#FFFFFF" width="2" height="2"/>
<rect x="2" y="20" opacity="0.5" fill="#FFFFFF" width="2" height="2"/>
<rect x="5" y="20" opacity="0.5" fill="#FFFFFF" width="2" height="2"/>
<rect x="8" y="20" fill="#FFFFFF" width="2" height="2"/>
<rect x="11" y="20" opacity="0.5" fill="#FFFFFF" width="2" height="2"/>
<rect x="14" y="20" opacity="0.5" fill="#FFFFFF" width="2" height="2"/>
<rect x="17" y="20" opacity="0.2" fill="#FFFFFF" width="2" height="2"/>
<rect x="20" y="20" opacity="0.2" fill="#FFFFFF" width="2" height="2"/>
<rect x="2" y="17" opacity="0.5" fill="#FFFFFF" width="2" height="2"/>
<rect x="5" y="17" opacity="0.5" fill="#FFFFFF" width="2" height="2"/>
<rect x="8" y="17" opacity="0.5" fill="#FFFFFF" width="2" height="2"/>
<rect x="11" y="17" opacity="0.5" fill="#FFFFFF" width="2" height="2"/>
<rect x="14" y="17" fill="#FFFFFF" width="2" height="2"/>
<rect x="17" y="17" fill="#FFFFFF" width="2" height="2"/>
<rect x="20" y="17" opacity="0.5" fill="#FFFFFF" width="2" height="2"/>
<rect x="2" y="14" opacity="0.5" fill="#FFFFFF" width="2" height="2"/>
<rect x="5" y="14" fill="#FFFFFF" width="2" height="2"/>
<rect x="8" y="14" opacity="0.5" fill="#FFFFFF" width="2" height="2"/>
<rect x="11" y="14" opacity="0.5" fill="#FFFFFF" width="2" height="2"/>
<rect x="14" y="14" opacity="0.5" fill="#FFFFFF" width="2" height="2"/>
<rect x="17" y="14" opacity="0.5" fill="#FFFFFF" width="2" height="2"/>
<rect x="20" y="14" opacity="0.5" fill="#FFFFFF" width="2" height="2"/>
<rect x="2" y="11" opacity="0.5" fill="#FFFFFF" width="2" height="2"/>
<rect x="5" y="11" opacity="0.5" fill="#FFFFFF" width="2" height="2"/>
<rect x="8" y="11" opacity="0.5" fill="#FFFFFF" width="2" height="2"/>
<rect x="11" y="11" opacity="0.5" fill="#FFFFFF" width="2" height="2"/>
<rect x="14" y="11" fill="#FFFFFF" width="2" height="2"/>
<rect x="17" y="11" opacity="0.5" fill="#FFFFFF" width="2" height="2"/>
<rect x="20" y="11" opacity="0.5" fill="#FFFFFF" width="2" height="2"/>
</svg>
