<?xml version="1.0" encoding="utf-8"?>
<!-- Generator: Adobe Illustrator 18.1.1, SVG Export Plug-In . SVG Version: 6.00 Build 0)  -->
<svg version="1.1" xmlns="http://www.w3.org/2000/svg" xmlns:xlink="http://www.w3.org/1999/xlink" x="0px" y="0px"
	 viewBox="0 0 48 48" enable-background="new 0 0 48 48" xml:space="preserve">
<g id="base" display="none">
	<rect display="inline" fill="#1A1A1A" width="48" height="48"/>
</g>
<g id="icon">
	<g>
		<path fill="#FFFFFF" d="M47.2,8.5c0,0.5-0.2,1-0.5,1.3L9,47.5C8.6,47.8,8.2,48,7.7,48c-0.5,0-1-0.2-1.3-0.5l-5.8-5.8
			C0.2,41.3,0,40.9,0,40.3s0.2-1,0.5-1.3L38.2,1.3C38.6,1,39,0.8,39.5,0.8c0.5,0,1,0.2,1.3,0.5l5.8,5.8C47,7.5,47.2,7.9,47.2,8.5z
			 M7.6,2.9l2.8,0.8L7.6,4.6L6.7,7.5L5.8,4.6L2.9,3.7l2.9-0.8L6.7,0L7.6,2.9z M17.9,7.6l5.7,1.8l-5.7,1.7l-1.8,5.7l-1.7-5.7L8.6,9.4
			l5.7-1.8l1.7-5.7L17.9,7.6z M26.4,2.9l2.8,0.8l-2.8,0.9l-0.9,2.9l-0.9-2.9l-2.8-0.9l2.8-0.8L25.5,0L26.4,2.9z M34.1,17l8.6-8.6
			l-3.1-3.1l-8.6,8.6L34.1,17z M45.1,21.6l2.9,0.9l-2.9,0.8l-0.9,2.9l-0.9-2.9l-2.8-0.8l2.8-0.9l0.9-2.9L45.1,21.6z"/>
	</g>
</g>
</svg>
