<?xml version="1.0" encoding="utf-8"?>
<!-- Generator: Adobe Illustrator 18.1.1, SVG Export Plug-In . SVG Version: 6.00 Build 0)  -->
<svg version="1.1" id="Layer_1" xmlns="http://www.w3.org/2000/svg" xmlns:xlink="http://www.w3.org/1999/xlink" x="0px" y="0px"
	 viewBox="0 0 24 24" enable-background="new 0 0 24 24" xml:space="preserve">
<g id="settings">
	<g>
		<path fill="#FFFFFF" d="M13.7,0.7c0.8,0,1.6,0.3,2.3,0.9l5.4,4.9l0.6-0.6L24,7.7l-3.1,3.5l-2.1-1.9l0.5-0.6l-5.4-4.9
			c-0.6-0.6-1.4-0.8-2.3-0.8c-0.6,0-1.2,0.2-1.8,0.4C11,1.7,12.3,0.8,13.7,0.7z"/>
		
			<rect x="17.3" y="3.3" transform="matrix(0.7413 0.6711 -0.6711 0.7413 7.358 -11.8009)" fill="#FFFFFF" width="3.3" height="0.6"/>
		<polygon fill="#FFFFFF" points="7.5,13.5 0.9,20.4 4.1,23.3 10.3,16.1 		"/>
		<g>
			<polygon fill="#FFFFFF" points="13.8,12 17.7,7.6 15.2,5.3 11.2,9.6 			"/>
			<path fill="#FFFFFF" d="M21.1,19.8c0.1-0.3,0.1-0.6,0.1-1c0-0.9-0.4-1.7-1.1-2.4c-0.7-0.6-1.5-0.9-2.5-0.9c-0.3,0-0.6,0.1-1,0.2
				l-3.4-3.1l0,0l-2.7-2.4l0,0L7,7c0.1-0.3,0.1-0.6,0.1-1c0-1-0.4-1.8-1.1-2.4C5.3,3.1,4.4,2.8,3.5,2.8c-0.3,0-0.7,0.1-1,0.2
				l2.7,2.5L2.8,8.2L0.1,5.7C0,6,0,6.4,0,6.7c0,0.9,0.4,1.7,1.1,2.4C1.8,9.7,2.6,10,3.6,9.9c0.3,0,0.7-0.1,1-0.2l1.2,1.1l0,0l7.8,7
				l0,0l0.7,0.6c-0.1,0.3-0.1,0.7-0.1,1c0,1,0.4,1.7,1.1,2.4c0.7,0.6,1.5,0.9,2.5,0.9c0.3,0,0.6-0.1,1-0.2L15.9,20l2.4-2.7
				L21.1,19.8z"/>
		</g>
	</g>
</g>
</svg>
