<?xml version="1.0" encoding="utf-8"?>
<!-- Generator: Adobe Illustrator 18.1.1, SVG Export Plug-In . SVG Version: 6.00 Build 0)  -->
<svg version="1.1" id="Layer_1" xmlns="http://www.w3.org/2000/svg" xmlns:xlink="http://www.w3.org/1999/xlink" x="0px" y="0px"
	 viewBox="0 0 24 24" enable-background="new 0 0 24 24" xml:space="preserve">
<g>
	<path fill="#FFFFFF" d="M1.2,13.4v-6h8.6L6,4.4l4.6-3l1.7,5.1L15.1,0l4.6,4.5l-4.7,3h7.8v6h-1.5V24H2.7V13.4H1.2z M2.7,12h7.8V9
		H2.7V12z M4.2,22.5h6.3V13H4.2V22.5z M7.9,4.5l3.3,2.7l-1.3-4L7.9,4.5z M13,7.4l4.8-3L15.5,2L13,7.4z M13.5,12h7.8V9h-7.8V12z
		 M13.5,22.5h6.3V13h-6.3V22.5z"/>
</g>
</svg>
