<?xml version="1.0" encoding="utf-8"?>
<!-- Generator: Adobe Illustrator 18.1.1, SVG Export Plug-In . SVG Version: 6.00 Build 0)  -->
<svg version="1.1" id="Layer_1" xmlns="http://www.w3.org/2000/svg" xmlns:xlink="http://www.w3.org/1999/xlink" x="0px" y="0px"
	 viewBox="0 0 24 24" enable-background="new 0 0 24 24" xml:space="preserve">
<path id="handle" opacity="0.8" fill="#FFFFFF" d="M15,13c-0.6,0.8-1.2,1.4-2,2l9,9l2-2L15,13z"/>
<circle id="lens" opacity="0.12" fill="#FFFFFF" cx="9" cy="9" r="8"/>
<path id="frame_1_" opacity="0.2" d="M9,1C4.6,1,1,4.6,1,9c0,4.4,3.6,8,8,8s8-3.6,8-8C17,4.6,13.4,1,9,1z M9,15.2
	c-3.4,0-6.2-2.8-6.2-6.2c0-3.4,2.8-6.2,6.2-6.2s6.2,2.8,6.2,6.2C15.2,12.4,12.4,15.2,9,15.2z"/>
<path id="frame" fill="#FFFFFF" d="M9,0C4,0,0,4,0,9c0,5,4,9,9,9s9-4,9-9C18,4,14,0,9,0z M9,16c-3.9,0-7-3.1-7-7c0-3.9,3.1-7,7-7
	s7,3.1,7,7C16,12.9,12.9,16,9,16z"/>
</svg>
