<?xml version="1.0" encoding="utf-8"?>
<!-- Generator: Adobe Illustrator 18.1.1, SVG Export Plug-In . SVG Version: 6.00 Build 0)  -->
<svg version="1.1" id="Layer_1" xmlns="http://www.w3.org/2000/svg" xmlns:xlink="http://www.w3.org/1999/xlink" x="0px" y="0px"
	 viewBox="0 0 24 24" enable-background="new 0 0 24 24" xml:space="preserve">
<g id="text" display="none">
	<rect id="button" x="4" y="15" display="inline" fill="#AA482E" width="5" height="2"/>
	<rect x="4" y="9" display="inline" fill="#FFFFFF" width="5.5" height="1"/>
	<rect x="4" y="11" display="inline" fill="#FFFFFF" width="3.5" height="1"/>
	<rect x="8" y="11" display="inline" fill="#FFFFFF" width="2.5" height="1"/>
	<rect x="11" y="11" display="inline" fill="#FFFFFF" width="2.5" height="1"/>
	<rect x="14" y="11" display="inline" fill="#FFFFFF" width="4.5" height="1"/>
	<rect x="10" y="9" display="inline" fill="#FFFFFF" width="2.5" height="1"/>
	<rect x="13" y="9" display="inline" fill="#FFFFFF" width="2.5" height="1"/>
	<rect x="16" y="9" display="inline" fill="#FFFFFF" width="4" height="1"/>
	<rect x="4" y="13" display="inline" fill="#D7D392" width="2.5" height="1"/>
	<rect x="7" y="13" display="inline" fill="#D7D392" width="4.5" height="1"/>
	<rect x="12" y="13" display="inline" fill="#D7D392" width="2.5" height="1"/>
</g>
<rect x="3" y="15" display="none" fill="#E1963E" width="4.5" height="3"/>
<rect x="7.5" y="15" display="none" fill="#85BAAF" width="4.5" height="3"/>
<rect x="12" y="15" display="none" fill="#AA482E" width="4.5" height="3"/>
<rect x="16.5" y="15" display="none" fill="#D0DB42" width="4.5" height="3"/>
<rect id="base_1_" x="1" y="5" fill="#003E46" width="22" height="12"/>
<path id="frame" fill="#FFFFFF" d="M0,4h24v14H0V4z M23,5H1v12h22V5z"/>
<rect id="post" x="11" y="18" fill="#FFFFFF" width="2.1" height="6"/>
<path id="light_5_" fill="#FFFFFF" d="M9.5,4h-1V3h1V4z M10.5,2h-3L7,3h4L10.5,2z"/>
<path id="light_8_" fill="#FFFFFF" d="M15.5,4h-1V3h1V4z M16.5,2h-3L13,3h4L16.5,2z"/>
<path id="light_6_" fill="#FFFFFF" d="M5,3H1l0.5-1h3L5,3z M3.5,3h-1v1h1V3z"/>
<path id="light_7_" fill="#FFFFFF" d="M23,3h-4l0.5-1h3L23,3z M21.5,3h-1v1h1V3z"/>
<rect id="platform" y="19" opacity="0.7" fill="#FFFFFF" width="24" height="1"/>
<rect id="rod_1_" x="18.5" y="18" fill="#FFFFFF" width="1" height="1"/>
<rect id="rod" x="4.5" y="18" fill="#FFFFFF" width="1" height="1"/>
<g id="content">
	<rect x="13" y="8" display="none" opacity="0.5" fill="#AA482E" width="8" height="1"/>
	<rect x="13" y="8" fill="#AA482E" width="8" height="1"/>
	<rect x="13" y="10" fill="#D0DB42" width="8" height="1"/>
	<rect x="13" y="11" display="none" opacity="0.5" fill="#D0DB42" width="8" height="1"/>
	<rect x="13" y="12" fill="#E1963E" width="8" height="1"/>
	<rect x="13" y="14" fill="#276E77" width="8" height="1"/>
	<rect x="13" y="14" display="none" opacity="0.5" fill="#E1963E" width="8" height="1"/>
	<rect x="3" y="7" fill="#85BAAF" width="8" height="8"/>
</g>
</svg>
