<?xml version="1.0" encoding="utf-8"?>
<!-- Generator: Adobe Illustrator 18.1.1, SVG Export Plug-In . SVG Version: 6.00 Build 0)  -->
<svg version="1.1" id="Layer_1" xmlns="http://www.w3.org/2000/svg" xmlns:xlink="http://www.w3.org/1999/xlink" x="0px" y="0px"
	 viewBox="-475 501 24 24" enable-background="new -475 501 24 24" xml:space="preserve">
<path fill="#FFFFFF" d="M-471.2,509.2c1.2,0,2.2,0.5,2.9,1.4l9.9-4.9c0-0.1,0-0.1,0-0.2c0-2.1,1.7-3.8,3.8-3.8s3.8,1.7,3.8,3.8
	s-1.7,3.8-3.8,3.8c-0.9,0-1.7-0.3-2.4-0.9l-9.3,4.6l9.3,4.6c0.7-0.5,1.5-0.9,2.4-0.9c2.1,0,3.8,1.7,3.8,3.8s-1.7,3.8-3.8,3.8
	s-3.8-1.7-3.8-3.8c0-0.1,0-0.1,0-0.2l-9.9-4.9c-0.7,0.8-1.7,1.4-2.9,1.4c-2.1,0-3.8-1.7-3.8-3.8S-473.3,509.2-471.2,509.2z"/>
</svg>
