<?xml version="1.0" encoding="utf-8"?>
<!-- Generator: Adobe Illustrator 18.1.1, SVG Export Plug-In . SVG Version: 6.00 Build 0)  -->
<svg version="1.1" id="Layer_1" xmlns="http://www.w3.org/2000/svg" xmlns:xlink="http://www.w3.org/1999/xlink" x="0px" y="0px"
	 viewBox="0 0 32 32" enable-background="new 0 0 32 32" xml:space="preserve">
<rect x="17" y="17" opacity="0.15" fill="#FFFFFF" width="6" height="6"/>
<circle fill="#FFFFFF" cx="20" cy="19" r="1"/>
<path opacity="0.9" fill="#FFFFFF" d="M16,16v8h8v-8H16z M23,23h-6v-6h6V23z"/>
<path fill="#FFFFFF" d="M20,20c-1.1,0-2,0.9-2,2h4C22,20.9,21.1,20,20,20z"/>
<path opacity="0.7" fill="#FFFFFF" d="M12,18h-1v-1h1V18z M15,17h-2v1h2V17z M19,12h-6v-1h6V12z M12,14h-1v-1h1V14z M12,12h-1v-1h1
	V12z M19,14h-6v-1h6V14z M15,16h-2v-1h2V16z M12,16h-1v-1h1V16z M12,20h-1v-1h1V20z M15,19h-2v1h2V19z"/>
<polygon fill="#FFFFFF" points="15,23 8,23 8,8 23,8 23,15 22,15 22,9 9,9 9,22 15,22 "/>
</svg>
