<?xml version="1.0" encoding="utf-8"?>
<!-- Generator: Adobe Illustrator 18.1.1, SVG Export Plug-In . SVG Version: 6.00 Build 0)  -->
<svg version="1.1" id="Layer_1" xmlns="http://www.w3.org/2000/svg" xmlns:xlink="http://www.w3.org/1999/xlink" x="0px" y="0px"
	 viewBox="0 0 24 24" enable-background="new 0 0 24 24" xml:space="preserve">
<path fill="#FFFFFF" d="M23,1v22H1V1H23 M24,0H0v24h24V0L24,0z"/>
<path fill="#FFFFFF" d="M23,1v22h-5V1H23 M24,0h-7v24h7V0L24,0z"/>
<rect x="18" y="17.5" fill="#FFFFFF" width="5" height="0.5"/>
<rect x="18" y="11.8" fill="#FFFFFF" width="5" height="0.5"/>
<rect x="18" y="6" fill="#FFFFFF" width="5" height="0.5"/>
<path fill="#FFFFFF" d="M8.9,5c2.6,0,4.7,2.1,4.7,4.7s-2.1,4.7-4.7,4.7s-4.7-2.1-4.7-4.7S6.3,5,8.9,5z M11.6,15.2
	c-0.8,0.4-1.7,0.7-2.7,0.7c-1,0-1.9-0.3-2.7-0.7C4.5,16.7,2,18.3,2,23h6.9H9h6.9C15.9,18.3,13.3,16.7,11.6,15.2z"/>
</svg>
