<?xml version="1.0" encoding="utf-8"?>
<!-- Generator: Adobe Illustrator 18.1.1, SVG Export Plug-In . SVG Version: 6.00 Build 0)  -->
<svg version="1.1" id="Layer_1" xmlns="http://www.w3.org/2000/svg" xmlns:xlink="http://www.w3.org/1999/xlink" x="0px" y="0px"
	 viewBox="0 0 24 24" enable-background="new 0 0 24 24" xml:space="preserve">
<path display="none" fill="#FFFFFF" d="M5.2,10c0.3,0,0.5-0.2,0.5-0.5C5.7,9.3,5.5,9,5.2,9H5.1H2.4H2.3C2,9,1.8,9.2,1.8,9.5
	S2,10,2.3,10h0.1v9.4H2.3c-0.3,0-0.5,0.2-0.5,0.5c0,0.2,0.2,0.5,0.5,0.5h0.1h2.8h0.1c0.3,0,0.5-0.2,0.5-0.5c0-0.2-0.2-0.5-0.5-0.5
	H5.1L5.2,10L5.2,10z"/>
<path display="none" fill="#FFFFFF" d="M10.8,10c0.3,0,0.5-0.2,0.5-0.5c0-0.2-0.2-0.5-0.5-0.5h-0.1H7.9H7.8C7.5,9,7.3,9.2,7.3,9.5
	c0,0.2,0.2,0.5,0.5,0.5h0.1v9.4H7.8c-0.3,0-0.5,0.2-0.5,0.5c0,0.2,0.2,0.5,0.5,0.5h0.1h2.8h0.1c0.3,0,0.5-0.2,0.5-0.5
	c0-0.2-0.2-0.5-0.5-0.5h-0.1L10.8,10L10.8,10z"/>
<path display="none" fill="#FFFFFF" d="M16.1,10c0.3,0,0.5-0.2,0.5-0.5c0-0.2-0.2-0.5-0.5-0.5H16h-2.8h-0.1c-0.3,0-0.5,0.2-0.5,0.5
	c0,0.2,0.2,0.5,0.5,0.5h0.1v9.4h-0.1c-0.3,0-0.5,0.2-0.5,0.5c0,0.2,0.2,0.5,0.5,0.5h0.1H16h0.1c0.3,0,0.5-0.2,0.5-0.5
	c0-0.2-0.2-0.5-0.5-0.5H16L16.1,10L16.1,10z"/>
<path display="none" fill="#FFFFFF" d="M21.7,10c0.3,0,0.5-0.2,0.5-0.5C22.2,9.3,22,9,21.7,9h-0.1h-2.8h-0.1c-0.3,0-0.5,0.2-0.5,0.5
	c0,0.2,0.2,0.5,0.5,0.5h0.1v9.4h-0.1c-0.3,0-0.5,0.2-0.5,0.5c0,0.2,0.2,0.5,0.5,0.5h0.1h2.8h0.1c0.3,0,0.5-0.2,0.5-0.5
	c0-0.2-0.2-0.5-0.5-0.5h-0.1L21.7,10L21.7,10z"/>
<rect y="2" fill="#FFFFFF" width="24" height="2"/>
<rect y="8" fill="#FFFFFF" width="24" height="2"/>
<rect y="14" fill="#FFFFFF" width="24" height="2"/>
<rect y="20" fill="#FFFFFF" width="24" height="2"/>
</svg>
