<?xml version="1.0" encoding="utf-8"?>
<!-- Generator: Adobe Illustrator 18.1.1, SVG Export Plug-In . SVG Version: 6.00 Build 0)  -->
<svg version="1.1" id="Layer_1" xmlns="http://www.w3.org/2000/svg" xmlns:xlink="http://www.w3.org/1999/xlink" x="0px" y="0px"
	 viewBox="0 0 24 24" enable-background="new 0 0 24 24" xml:space="preserve">
<g>
	<path fill="#FFFFFF" d="M18.9,9.4c0,1.2-0.4,2.4-1.3,3.4c-0.8,1.1-2,1.9-3.4,2.5s-3,0.9-4.7,0.9c-0.8,0-1.6-0.1-2.4-0.2
		c-1.1,0.8-2.4,1.4-3.7,1.7C3,17.9,2.6,17.9,2.2,18h0c-0.1,0-0.2,0-0.3-0.1c-0.1-0.1-0.1-0.2-0.1-0.3c0,0,0,0,0-0.1s0-0.1,0-0.1
		c0,0,0-0.1,0-0.1l0-0.1l0.1-0.1l0.1-0.1C2,17,2,17,2,17l0.7-0.7c0.1-0.1,0.2-0.2,0.3-0.4c0.1-0.2,0.2-0.4,0.3-0.5
		c0.1-0.1,0.2-0.3,0.3-0.6c-1.1-0.6-2-1.4-2.6-2.4c-0.6-0.9-0.9-1.9-1-3C0,8.2,0.4,7,1.3,6c0.8-1.1,2-1.9,3.4-2.5
		c1.4-0.6,3-0.9,4.7-0.9c1.7,0,3.3,0.3,4.7,0.9s2.6,1.4,3.4,2.5C18.4,7,18.9,8.2,18.9,9.4z M24,12.8c0,1.1-0.3,2.1-1,3
		c-0.6,0.9-1.5,1.7-2.6,2.4c0.1,0.2,0.2,0.4,0.3,0.6c0.1,0.2,0.2,0.3,0.3,0.5l0.6,0.8c0.1,0.2,0.2,0.3,0.3,0.3l0.1,0.1l0.1,0.1
		l0.1,0.2c0,0,0,0,0,0.1c0,0.1-0.1,0.2-0.2,0.3c-0.1,0.1-0.2,0.1-0.3,0.1c-0.4-0.1-0.8-0.1-1.2-0.2c-1.4-0.4-2.6-0.9-3.7-1.7
		c-0.8,0.1-1.6,0.2-2.4,0.2c-2.4,0-4.5-0.6-6.3-1.8C8.8,18,9.2,18,9.4,18c1.4,0,2.8-0.2,4.1-0.6c1.3-0.4,2.5-1,3.6-1.7
		c1.1-0.8,2-1.8,2.6-2.9c0.6-1.1,0.9-2.2,0.9-3.4c0-0.7-0.1-1.4-0.3-2C21.4,8,22.3,8.8,23,9.8S24,11.7,24,12.8z"/>
</g>
</svg>
