<?xml version="1.0" encoding="utf-8"?>
<!-- Generator: Adobe Illustrator 18.1.1, SVG Export Plug-In . SVG Version: 6.00 Build 0)  -->
<svg version="1.1" id="Layer_1" xmlns="http://www.w3.org/2000/svg" xmlns:xlink="http://www.w3.org/1999/xlink" x="0px" y="0px"
	 viewBox="0 0 24 24" enable-background="new 0 0 24 24" xml:space="preserve">
<rect id="base_4_" y="22" fill="#FFFFFF" width="24" height="2"/>
<rect id="step_1_" x="1" y="18" fill="#FFFFFF" width="22" height="1"/>
<g id="columns_1_">
	<rect x="17" y="7" opacity="0.61" fill="#FFFFFF" width="1" height="11"/>
	<rect x="19" y="7" opacity="0.61" fill="#FFFFFF" width="1" height="11"/>
	<rect x="21" y="7" opacity="0.61" fill="#FFFFFF" width="1" height="11"/>
	<rect x="2" y="7" opacity="0.61" fill="#FFFFFF" width="1" height="11"/>
	<rect x="4" y="7" opacity="0.61" fill="#FFFFFF" width="1" height="11"/>
	<rect x="6" y="7" opacity="0.61" fill="#FFFFFF" width="1" height="11"/>
</g>
<path id="posts_1_" fill="#FFFFFF" d="M9,18H8V6h1V18z M16,6h-1v12h1V6z"/>
<polygon id="roof_2_" fill="#FFFFFF" points="0,5 24,5 24,3.5 12,0 0,3.5 "/>
<rect x="10" y="8" opacity="0.4" fill="#FFFFFF" width="4" height="10"/>
<rect x="1" y="6" fill="#FFFFFF" width="22" height="1"/>
<rect y="20" fill="#FFFFFF" width="24" height="1"/>
</svg>
