<?xml version="1.0" encoding="utf-8"?>
<!-- Generator: Adobe Illustrator 18.1.1, SVG Export Plug-In . SVG Version: 6.00 Build 0)  -->
<svg version="1.1" id="Layer_1" xmlns="http://www.w3.org/2000/svg" xmlns:xlink="http://www.w3.org/1999/xlink" x="0px" y="0px"
	 viewBox="0 0 36 36" enable-background="new 0 0 36 36" xml:space="preserve">
<g>
	<path fill="#FFFFFF" d="M11.6,36c-0.1-0.1,0.4-1.4,1.4-3.8l3.2-7.3c1.1-2.5,1.6-3.8,1.5-3.9c-0.1-0.2-1.3-0.8-3.8-1.8
		c-2.5-1-3.8-1.8-3.9-2.2c-0.1-0.3,1-1.9,3.4-4.8c2.3-2.9,4.7-5.7,7.2-8.4c2.5-2.7,3.7-4,3.9-3.9c0.1,0.1-0.9,2.6-3,7.4
		c-2.1,4.9-3.2,7.3-3.1,7.4c0.1,0.1,1.3,0.7,3.8,1.7c2.5,1,3.8,1.8,3.9,2.3c0.1,0.5-2.2,3.5-7,9C14.3,33.5,11.8,36.2,11.6,36z"/>
</g>
</svg>
