<?xml version="1.0" encoding="utf-8"?>
<!-- Generator: Adobe Illustrator 18.1.1, SVG Export Plug-In . SVG Version: 6.00 Build 0)  -->
<svg version="1.1" id="Layer_1" xmlns="http://www.w3.org/2000/svg" xmlns:xlink="http://www.w3.org/1999/xlink" x="0px" y="0px"
	 viewBox="0 0 24 24" enable-background="new 0 0 24 24" xml:space="preserve">
<g>
	<rect y="1" opacity="0.35" fill="#FFFFFF" width="3" height="22"/>
	<rect y="3.6" opacity="0.8" fill="#FFFFFF" width="3" height="0.5"/>
	<rect y="19.9" opacity="0.8" fill="#FFFFFF" width="3" height="0.5"/>
</g>
<g>
	<polygon opacity="0.2" fill="#FFFFFF" points="17.3,22.8 14.3,23.1 12.2,1.2 15.2,0.9 	"/>
	<polygon opacity="0.8" fill="#FFFFFF" points="15.5,4 12.5,4.3 12.5,3.8 15.5,3.5 	"/>
	<polygon opacity="0.8" fill="#FFFFFF" points="17,20.2 14,20.5 14,20 17,19.7 	"/>
</g>
<g>
	<rect x="4" y="3.1" opacity="0.7" fill="#FFFFFF" width="3" height="19.9"/>
	<rect x="4" y="5.2" fill="#FFFFFF" width="3" height="0.5"/>
	<rect x="4" y="20.4" fill="#FFFFFF" width="3" height="0.5"/>
</g>
<g>
	<polygon opacity="0.8" fill="#FFFFFF" points="24,22.3 21.1,23.1 16.4,3.8 19.3,3 	"/>
	<polygon fill="#FFFFFF" points="19.9,5.6 17,6.3 16.9,5.8 19.8,5 	"/>
	<polygon fill="#FFFFFF" points="23.5,20.3 20.6,21 20.5,20.5 23.4,19.8 	"/>
</g>
<g>
	<rect x="8" y="4.1" opacity="0.5" fill="#FFFFFF" width="4" height="18.8"/>
	<rect x="9" y="6.2" fill="#FFFFFF" width="2" height="14.7"/>
</g>
</svg>
