<!-- Copyright © 2015 MODULUS Sp. z o. o. / FUTURAMO™ --><svg xmlns="http://www.w3.org/2000/svg" x="0px" y="0px" width="48px" height="48px" viewBox="0 0 32 32"><path  fill="#FFFFFF" d="M25.899,6.101l1.414-1.414c6.248,6.248,6.249,16.379,0,22.627l-1.414-1.414 C31.358,20.441,31.358,11.559,25.899,6.101z M6.101,6.101L4.686,4.686c-6.249,6.249-6.248,16.379,0,22.627l1.414-1.414 C0.642,20.441,0.642,11.559,6.101,6.101z M21.657,21.657l1.414,1.414c3.906-3.906,3.906-10.237,0-14.142l-1.414,1.414 C24.775,13.462,24.776,18.538,21.657,21.657z M10.343,10.343L8.929,8.929c-3.906,3.906-3.906,10.237,0,14.142l1.414-1.414 C7.225,18.538,7.224,13.462,10.343,10.343z M18.828,13.172c-1.562-1.562-4.095-1.562-5.657,0s-1.562,4.095,0,5.657 c1.562,1.562,4.095,1.562,5.657,0C20.39,17.266,20.39,14.734,18.828,13.172z"></path></svg>