<!-- Copyright © 2015 MODULUS Sp. z o. o. / FUTURAMO™ --><svg xmlns="http://www.w3.org/2000/svg" x="0px" y="0px" width="48px" height="48px" viewBox="0 0 32 32"><path  fill="#FFFFFF" d="M4,28.002v-4h4v4H4z M14.002,24.002h-4v4h4V24.002z M20,24.002h-4v4h4V24.002z M26,24.002h-4v4h4V24.002z  M8,18H4v4h4V18z M14.002,18h-4v4h4V18z M20,18h-4v4h4V18z M26,18h-4v4h4V18z M8,12H4v4h4V12z M14.002,12h-4v4h4V12z M20,12h-4v4h4 V12z M26,12h-4v4h4V12z M26,4h4v28H0V4h4V0h6v4h10V0h6V4z M22,6h2V2h-2V6z M6,6h2V2H6V6z M28,10H2v20h26V10z"></path></svg>