<?xml version="1.0" encoding="utf-8"?>
<!-- Generator: Adobe Illustrator 18.1.1, SVG Export Plug-In . SVG Version: 6.00 Build 0)  -->
<svg version="1.1" id="Layer_1" xmlns="http://www.w3.org/2000/svg" xmlns:xlink="http://www.w3.org/1999/xlink" x="0px" y="0px"
	 viewBox="0 0 24 24" enable-background="new 0 0 24 24" xml:space="preserve">
<polygon fill="#FFFFFF" points="16,2 16,3 21,3 21,23 3,23 3,3 8,3 8,2 2,2 2,24 22,24 22,2 "/>
<path fill="#FFFFFF" d="M16,4l-2-1V1h-1h-2h-1v2L8,4H6v2h12V4H16z M13,4h-2V2h2V4z"/>
<rect x="8" y="8" fill="#FFFFFF" width="11" height="1"/>
<rect x="5" y="8" fill="#FFFFFF" width="1" height="1"/>
<rect x="5" y="11" fill="#FFFFFF" width="1" height="1"/>
<rect x="5" y="14" fill="#FFFFFF" width="1" height="1"/>
<rect x="5" y="17" fill="#FFFFFF" width="1" height="1"/>
<rect x="5" y="20" fill="#FFFFFF" width="1" height="1"/>
<rect x="8" y="11" fill="#FFFFFF" width="11" height="1"/>
<rect x="8" y="14" fill="#FFFFFF" width="11" height="1"/>
<rect x="8" y="17" fill="#FFFFFF" width="11" height="1"/>
<rect x="8" y="20" fill="#FFFFFF" width="11" height="1"/>
</svg>
