<?xml version="1.0" encoding="utf-8"?>
<!-- Generator: Adobe Illustrator 18.1.1, SVG Export Plug-In . SVG Version: 6.00 Build 0)  -->
<svg version="1.1" id="Layer_1" xmlns="http://www.w3.org/2000/svg" xmlns:xlink="http://www.w3.org/1999/xlink" x="0px" y="0px"
	 viewBox="0 0 32 32" enable-background="new 0 0 32 32" xml:space="preserve">
<circle fill="#FFFFFF" cx="16" cy="16" r="2"/>
<g>
	<path fill="#FFFFFF" d="M10.6,9.6C9,11.3,8,13.5,8,16c0,2.5,1,4.7,2.6,6.4l0.7-0.7C9.9,20.2,9,18.2,9,16c0-2.2,0.9-4.2,2.3-5.7
		L10.6,9.6z"/>
	<path fill="#FFFFFF" d="M21.4,9.6l-0.7,0.7c1.4,1.4,2.3,3.4,2.3,5.7c0,2.2-0.9,4.2-2.3,5.7l0.7,0.7C23,20.7,24,18.5,24,16
		C24,13.5,23,11.3,21.4,9.6z"/>
</g>
<g>
	<path fill="#FFFFFF" d="M19.2,20.2c1.1-1.1,1.8-2.6,1.8-4.2s-0.7-3.2-1.8-4.2l-0.7,0.7c0.9,0.9,1.5,2.2,1.5,3.5
		c0,1.4-0.6,2.6-1.5,3.5L19.2,20.2z"/>
	<path fill="#FFFFFF" d="M13.5,19.5C12.6,18.6,12,17.4,12,16c0-1.4,0.6-2.6,1.5-3.5l-0.7-0.7C11.7,12.8,11,14.3,11,16
		s0.7,3.2,1.8,4.2L13.5,19.5z"/>
</g>
</svg>
