<?xml version="1.0" encoding="utf-8"?>
<!-- Generator: Adobe Illustrator 18.1.1, SVG Export Plug-In . SVG Version: 6.00 Build 0)  -->
<svg version="1.1" xmlns="http://www.w3.org/2000/svg" xmlns:xlink="http://www.w3.org/1999/xlink" x="0px" y="0px"
	 viewBox="0 0 64 64" enable-background="new 0 0 64 64" xml:space="preserve">
<g id="base" display="none">
	<rect display="inline" fill="#1A1A1A" width="64" height="64"/>
</g>
<g id="alert">
	<g id="red" opacity="0.5">
		<polygon fill="#FF0000" points="1,59 32,5.3 63,59 		"/>
	</g>
	<g id="triangle_1_">
		<path fill="#FFFFFF" d="M32,8.6L60.5,58H3.5L32,8.6 M32,4.6L0,60h64L32,4.6L32,4.6z"/>
	</g>
	<path id="tools" display="none" fill="#FFFFFF" d="M25.6,37.1c-0.1,0.1-0.2,0.2-0.2,0.4c0,0.2-0.1,0.3-0.1,0.5s0,0.2,0,0.2
		l-0.3,0.3c-0.2,0.2-0.3,0.3-0.4,0.3c-0.2,0.2-0.4,0.1-0.5-0.1l-1.3-1.4c-0.1-0.1-0.1-0.3,0-0.4c0,0,0.1-0.1,0.3-0.3
		c0.2-0.1,0.3-0.2,0.4-0.3c0.1-0.1,0.2-0.1,0.5-0.1s0.5-0.1,0.7-0.3c0.2-0.2,0.3-0.4,0.4-0.7c0-0.3,0.1-0.5,0.2-0.6
		c0,0,0.1,0,0.2-0.1c0.1-0.1,0.2-0.2,0.5-0.4c0.2-0.2,0.5-0.4,0.8-0.6c1.7-1.1,2.8-1.7,3.5-1.8c1.5,0,2.4,0,2.8,0
		c0.1,0,0.1,0-0.2,0.1c-1.5,0.6-2.4,1.1-2.8,1.4c-1,0.7-1.2,1.4-0.7,2.1c0.4,0.6,0.7,0.9,0.7,0.9c0.1,0.1,0.1,0.2,0,0.3l-1.4,1.3
		C28.3,38,28.2,38,28.1,38c-0.5-0.6-1-1-1.3-1.1C26.4,36.7,26,36.8,25.6,37.1z M25.2,46.6l4.7-4.6l1.4,1.6l-4.6,4.5
		c-0.2,0.2-0.5,0.3-0.7,0.1l-0.9-0.9C24.9,47.1,24.9,46.8,25.2,46.6z M30.9,37.6l7.7,8.9c0.2,0.3,0.2,0.5,0,0.7L37.6,48
		c-0.3,0.2-0.5,0.1-0.7-0.1l-7.7-8.8c-0.1-0.1-0.1-0.2,0-0.4l1.3-1.2C30.7,37.4,30.8,37.5,30.9,37.6z M41.2,33.8
		c0.2,1.3,0.1,2.3-0.3,3.1c-0.6,1.1-1.6,1.5-2.9,1.2c-0.7-0.1-1.3,0.1-1.9,0.6l-1.5,1.5l-1.3-1.5l1.3-1.3c0.3-0.3,0.5-0.6,0.6-1
		c0.1-0.4,0.1-0.8,0.1-1.2c0-0.4,0-0.8,0.1-1.1c0.2-0.7,1-1.4,2.6-2.1c0.1-0.1,0.3-0.1,0.3,0.1c0.1,0.1,0.1,0.2,0,0.3
		c-0.1,0.1-0.4,0.6-0.9,1.5c-0.2,0.1-0.2,0.3-0.2,0.7c0,0.3,0.3,0.6,0.7,1c0.7,0.5,1.3,0.4,1.8-0.4c0.1-0.1,0.2-0.4,0.5-0.8
		c0.2-0.4,0.4-0.6,0.4-0.6c0-0.1,0.1-0.2,0.2-0.2C41.1,33.5,41.2,33.6,41.2,33.8z"/>
	<path id="gears" fill="#FFFFFF" d="M22,43.1v-1.9l1.9-0.2c0.1-0.4,0.3-0.8,0.5-1.1l-1.2-1.5l1.4-1.4l1.5,1.2
		c0.3-0.2,0.7-0.4,1.1-0.5l0.2-1.9h1.9l0.2,1.9c0.4,0.1,0.8,0.2,1.1,0.5L32,37l1.4,1.4l-1.2,1.5c0.2,0.3,0.4,0.7,0.5,1.1l1.9,0.2
		v1.9l-1.9,0.2c-0.1,0.4-0.2,0.8-0.5,1.1l1.2,1.4L32,47.2L30.5,46c-0.3,0.2-0.7,0.4-1.1,0.5l-0.2,1.9h-1.9l-0.2-1.9
		c-0.4-0.1-0.8-0.3-1.1-0.5l-1.5,1.2l-1.4-1.4l1.2-1.4c-0.2-0.3-0.4-0.7-0.5-1.1L22,43.1z M26.4,42.1c0,0.5,0.2,0.9,0.5,1.3
		c0.3,0.4,0.8,0.5,1.3,0.5c0.5,0,0.9-0.2,1.3-0.5c0.3-0.3,0.5-0.8,0.5-1.3c0-0.5-0.2-0.9-0.5-1.3c-0.4-0.3-0.8-0.5-1.3-0.5
		c-0.5,0-0.9,0.1-1.3,0.5C26.6,41.2,26.4,41.7,26.4,42.1z M32.8,37.4l0.2-1.4l1.4,0c0.1-0.3,0.2-0.6,0.4-0.8L34,34l1.1-0.9l1,1
		c0.3-0.1,0.5-0.2,0.8-0.3l0.3-1.3l1.4,0.2l0,1.4c0.3,0.1,0.6,0.3,0.8,0.4l1.1-0.8l0.9,1.1l-1,1c0.1,0.3,0.2,0.6,0.2,0.9l1.4,0.3
		l-0.2,1.4h-1.4c-0.1,0.3-0.3,0.5-0.4,0.7l0.8,1.2l-1.1,0.9l-0.9-1c-0.3,0.1-0.6,0.2-0.9,0.2l-0.3,1.3l-1.4-0.1v-1.4
		c-0.3-0.1-0.5-0.2-0.7-0.4l-1.2,0.7l-0.9-1.1l1-1c-0.1-0.3-0.2-0.5-0.2-0.8L32.8,37.4z M33.4,46.3l0.1-1h1c0.1-0.2,0.2-0.4,0.3-0.6
		l-0.5-0.9l0.7-0.7l0.7,0.7c0.2-0.1,0.4-0.2,0.6-0.2l0.2-1l1,0.1v1c0.2,0.1,0.4,0.2,0.6,0.3l0.8-0.5l0.6,0.8l-0.7,0.7
		c0.1,0.2,0.1,0.4,0.2,0.6l0.9,0.2l-0.1,1h-1c-0.1,0.2-0.1,0.4-0.3,0.5l0.6,0.9L38.3,49l-0.7-0.7c-0.2,0.1-0.4,0.2-0.6,0.2l-0.2,1
		l-1-0.1v-1c-0.2-0.1-0.4-0.1-0.5-0.3l-0.8,0.6l-0.6-0.8l0.7-0.7c-0.1-0.2-0.1-0.4-0.2-0.6L33.4,46.3z M35.8,46
		c-0.1,0.3,0,0.5,0.2,0.7c0.2,0.2,0.4,0.3,0.6,0.3c0.3,0,0.5,0,0.7-0.2c0.2-0.1,0.3-0.4,0.3-0.7c0-0.3,0-0.5-0.2-0.7
		c-0.2-0.2-0.4-0.3-0.6-0.4h-0.1c-0.2,0-0.4,0.1-0.6,0.2C35.8,45.5,35.7,45.7,35.8,46z M36.1,37c-0.1,0.4,0,0.7,0.3,1
		c0.2,0.3,0.5,0.4,0.9,0.5c0.4,0.1,0.7,0,1-0.3s0.4-0.6,0.5-0.9c0-0.3-0.1-0.7-0.3-1c-0.2-0.3-0.5-0.5-0.9-0.5h-0.1
		c-0.3,0-0.6,0.1-0.9,0.3C36.3,36.4,36.1,36.6,36.1,37z"/>
</g>
</svg>
