<?xml version="1.0" encoding="utf-8"?>
<!-- Generator: Adobe Illustrator 18.1.1, SVG Export Plug-In . SVG Version: 6.00 Build 0)  -->
<svg version="1.1" id="Layer_1" xmlns="http://www.w3.org/2000/svg" xmlns:xlink="http://www.w3.org/1999/xlink" x="0px" y="0px"
	 viewBox="0 0 24 24" enable-background="new 0 0 24 24" xml:space="preserve">
<path id="roof" fill="#FFFFFF" d="M12,0L0,6h24L12,0z"/>
<rect id="beam" x="1" y="7" fill="#FFFFFF" width="22" height="1"/>
<rect id="base_2_" y="23" fill="#FFFFFF" width="24" height="1"/>
<rect id="stair" x="1" y="21" fill="#FFFFFF" width="22" height="1"/>
<rect x="13" y="9" fill="#FFFFFF" width="4" height="1"/>
<rect x="19" y="9" fill="#FFFFFF" width="4" height="1"/>
<rect x="7" y="9" fill="#FFFFFF" width="4" height="1"/>
<rect x="1" y="9" fill="#FFFFFF" width="4" height="1"/>
<rect x="13" y="19" fill="#FFFFFF" width="4" height="1"/>
<rect x="19" y="19" fill="#FFFFFF" width="4" height="1"/>
<rect x="7" y="19" fill="#FFFFFF" width="4" height="1"/>
<rect x="1" y="19" fill="#FFFFFF" width="4" height="1"/>
<rect x="7.8" y="10" fill="#FFFFFF" width="2.5" height="9"/>
<rect x="1.8" y="10" fill="#FFFFFF" width="2.5" height="9"/>
<rect x="13.8" y="10" fill="#FFFFFF" width="2.5" height="9"/>
<rect x="19.8" y="10" fill="#FFFFFF" width="2.5" height="9"/>
</svg>
