<?xml version="1.0" encoding="utf-8"?>
<!-- Generator: Adobe Illustrator 18.1.1, SVG Export Plug-In . SVG Version: 6.00 Build 0)  -->
<svg version="1.1" id="Layer_1" xmlns="http://www.w3.org/2000/svg" xmlns:xlink="http://www.w3.org/1999/xlink" x="0px" y="0px"
	 viewBox="500 500 24 24" enable-background="new 500 500 24 24" xml:space="preserve">
<g id="Layer_2" display="none">
	<rect display="inline" fill="#1A1A1A" width="1024" height="1024"/>
</g>
<g id="Layer_1_1_" display="none">
	<rect y="96" display="inline" fill="#FFFFFF" width="896" height="832"/>
	<rect x="896" y="224" display="inline" opacity="0.5" fill="#FFFFFF" enable-background="new    " width="128" height="704"/>
	<rect x="96" y="384" display="inline" fill="#1A1A1A" width="384" height="416"/>
	<rect x="96" y="224" display="inline" fill="#1A1A1A" width="704" height="96"/>
	<rect x="544" y="704" display="inline" fill="#1A1A1A" width="256" height="96"/>
	<rect x="544" y="544" display="inline" fill="#1A1A1A" width="256" height="96"/>
	<rect x="544" y="384" display="inline" fill="#1A1A1A" width="256" height="96"/>
</g>
<g id="Layer_3">
	<rect x="521" y="505.2" opacity="0.5" fill="#FFFFFF" enable-background="new    " width="3" height="16.5"/>
	<path fill="#FFFFFF" d="M500,502.2v19.5h21v-19.5H500z M511.2,518.8h-9V509h9V518.8z M518.8,518.8h-6v-2.2h6V518.8z M518.8,515h-6
		v-2.2h6V515z M518.8,511.2h-6V509h6V511.2z M518.8,507.5h-16.5v-2.2h16.5V507.5z"/>
</g>
</svg>
