<?xml version="1.0" encoding="utf-8"?>
<!-- Generator: Adobe Illustrator 18.1.1, SVG Export Plug-In . SVG Version: 6.00 Build 0)  -->
<svg version="1.1" id="Layer_1" xmlns="http://www.w3.org/2000/svg" xmlns:xlink="http://www.w3.org/1999/xlink" x="0px" y="0px"
	 viewBox="0 0 24 24" enable-background="new 0 0 24 24" xml:space="preserve">
<g>
	<path fill="#FFFFFF" d="M0,14.5v-2.3L2.3,12c0.1-0.5,0.3-0.9,0.6-1.3L1.4,8.9L3,7.2l1.8,1.5c0.4-0.3,0.9-0.4,1.3-0.6l0.2-2.3h2.3
		l0.2,2.3c0.5,0.1,0.9,0.3,1.3,0.6L12,7.2l1.6,1.7l-1.4,1.8c0.3,0.4,0.4,0.8,0.6,1.3l2.3,0.2v2.3l-2.3,0.2c-0.1,0.5-0.3,0.9-0.6,1.3
		l1.4,1.7L12,19.5L10.2,18c-0.4,0.2-0.9,0.4-1.3,0.6l-0.2,2.3H6.3l-0.2-2.3c-0.5-0.1-0.9-0.3-1.3-0.6L3,19.5l-1.6-1.7l1.4-1.7
		c-0.2-0.4-0.4-0.9-0.6-1.3L0,14.5z M5.3,13.3c0,0.6,0.2,1.1,0.6,1.5c0.4,0.4,0.9,0.6,1.5,0.6c0.6,0,1.1-0.2,1.5-0.6
		c0.4-0.4,0.6-0.9,0.6-1.5S9.4,12.2,9,11.8c-0.4-0.4-0.9-0.6-1.5-0.6c-0.6,0-1.1,0.2-1.5,0.6C5.5,12.3,5.3,12.8,5.3,13.3z M12.9,7.6
		l0.2-1.7l1.7,0c0.1-0.4,0.3-0.7,0.5-0.9l-0.9-1.4l1.3-1.1l1.2,1.2c0.3-0.2,0.6-0.3,1-0.3l0.3-1.6L19.9,2l0,1.6
		c0.4,0.1,0.7,0.3,0.9,0.5l1.4-0.9l1.1,1.3l-1.2,1.2c0.2,0.3,0.3,0.7,0.3,1L24,7.1l-0.2,1.7h-1.6c-0.1,0.3-0.3,0.6-0.5,0.9l0.9,1.4
		l-1.3,1.1L20.1,11c-0.4,0.1-0.7,0.2-1,0.3l-0.3,1.6l-1.7-0.1V11c-0.3-0.1-0.6-0.3-0.9-0.5l-1.4,0.9l-1.1-1.3L14.9,9
		c-0.1-0.3-0.2-0.6-0.3-1L12.9,7.6z M13.7,18.3l0.1-1.2H15c0.1-0.3,0.2-0.5,0.3-0.7l-0.6-1l0.9-0.8l0.9,0.9c0.2-0.1,0.4-0.2,0.7-0.2
		l0.2-1.2l1.2,0.1v1.2c0.3,0.1,0.5,0.2,0.7,0.4l1-0.6l0.7,1L20.1,17c0.1,0.2,0.2,0.4,0.2,0.7l1.1,0.3l-0.1,1.2h-1.2
		c-0.1,0.2-0.2,0.5-0.3,0.6l0.7,1l-1,0.8l-0.8-0.9C18.5,20.9,18.3,21,18,21l-0.2,1.2L16.6,22v-1.2c-0.2-0.1-0.4-0.2-0.6-0.3l-1,0.7
		l-0.7-1l0.8-0.9c-0.1-0.2-0.2-0.4-0.2-0.7L13.7,18.3z M16.5,18c-0.1,0.3,0,0.6,0.2,0.9c0.2,0.2,0.4,0.4,0.8,0.4
		c0.3,0,0.6,0,0.8-0.2c0.2-0.2,0.4-0.4,0.4-0.8c0-0.4,0-0.6-0.2-0.8c-0.2-0.2-0.5-0.3-0.7-0.4h-0.1c-0.3,0-0.5,0.1-0.7,0.3
		S16.5,17.7,16.5,18z M16.9,7.2c-0.1,0.4,0,0.8,0.3,1.2c0.3,0.3,0.6,0.5,1.1,0.6c0.4,0.1,0.8-0.1,1.2-0.4S20,7.9,20,7.5
		c0-0.4-0.1-0.8-0.3-1.2c-0.3-0.4-0.6-0.5-1.1-0.6h-0.2c-0.4,0-0.8,0.1-1.1,0.4C17.1,6.4,17,6.8,16.9,7.2z"/>
</g>
</svg>
