<?xml version="1.0" encoding="utf-8"?>
<!-- Generator: Adobe Illustrator 18.1.1, SVG Export Plug-In . SVG Version: 6.00 Build 0)  -->
<svg version="1.1" id="Layer_1" xmlns="http://www.w3.org/2000/svg" xmlns:xlink="http://www.w3.org/1999/xlink" x="0px" y="0px"
	 viewBox="0 0 20 20" enable-background="new 0 0 20 20" xml:space="preserve">
<g>
	<path fill="#FFFFFF" d="M10,5.8c-2.2,0-4.1,0.8-5.7,2.5C2.8,10.1,2,12.1,2,14.6c0,0.4,0,0.7,0,0.9c0,0.3-0.1,0.5-0.2,0.7
		c-0.2,0.2-0.4,0.3-0.7,0.3c-0.3,0-0.5-0.1-0.7-0.2c-0.2-0.2-0.3-0.4-0.4-0.7c0-0.1,0-0.3,0-0.5c0-0.2,0-0.4,0-0.6C0,11.6,1,9,2.9,7
		C4.8,4.9,7.2,3.8,10,3.8c1,0,1.9,0.1,2.7,0.4l-1.4,1.7C10.7,5.9,10.3,5.8,10,5.8z M8.1,13.4c0.5-0.7,1.9-2.6,4.3-5.7
		c2.4-3,3.7-4.5,3.9-4.4c0.2,0.1-0.5,1.9-1.9,5.6c-1.4,3.6-2.4,5.8-2.8,6.5c-0.7,1.1-1.6,1.4-2.7,0.7C7.7,15.5,7.5,14.6,8.1,13.4z
		 M17.2,7.1c1.8,2.1,2.8,4.6,2.8,7.5c0,0.5,0,0.9,0,1.1c0,0.3-0.1,0.5-0.3,0.6c-0.2,0.2-0.4,0.3-0.7,0.3h-0.1
		c-0.3-0.1-0.5-0.2-0.7-0.4C18,16,17.9,15.8,18,15.5c0-0.2,0-0.5,0-0.9c0-2-0.5-3.8-1.6-5.4c0.1-0.2,0.2-0.5,0.4-1L17.2,7.1z"/>
</g>
</svg>
