<?xml version="1.0" encoding="utf-8"?>
<!-- Generator: Adobe Illustrator 18.1.1, SVG Export Plug-In . SVG Version: 6.00 Build 0)  -->
<svg version="1.1" id="Layer_1" xmlns="http://www.w3.org/2000/svg" xmlns:xlink="http://www.w3.org/1999/xlink" x="0px" y="0px"
	 viewBox="4 -4 32 32" enable-background="new 4 -4 32 32" xml:space="preserve">
<path fill="#FFFFFF" d="M5,5v14h30V5H5z M15,7h2v2h-2V7z M15,11h2v2h-2V11z M11,7h2v2h-2V7z M11,11h2v2h-2V11z M9,17H7v-2h2V17z
	 M9,13H7v-2h2V13z M9,9H7V7h2V9z M29,17H11v-2h18V17z M31,7h2v2h-2V7z M31,11h2v2h-2V11z M31,15h2v2h-2V15z M27,7h2v2h-2V7z M27,11
	h2v2h-2V11z M23,7h2v2h-2V7z M23,11h2v2h-2V11z M19,7h2v2h-2V7z M19,11h2v2h-2V11z"/>
</svg>
