<!-- Copyright © 2015 MODULUS Sp. z o. o. / FUTURAMO™ --><svg xmlns="http://www.w3.org/2000/svg" x="0px" y="0px" width="32px" height="32px" viewBox="0 0 32 32"><path  fill="#FFFFFF" d="M32,8v10h-1V9H17.586l-4-4H1v24h18v1H0V4h14l4,4H32z M25.243,24.657l4.95,4.95l1.419-1.381l-4.95-4.95 L25.243,24.657z M17.464,15.464c-1.95,1.95-1.95,5.122,0,7.071s5.122,1.95,7.071,0s1.95-5.122,0-7.071S19.414,13.515,17.464,15.464  M16.757,14.757c2.343-2.343,6.142-2.343,8.485,0s2.343,6.142,0,8.485s-6.142,2.343-8.485,0S14.414,17.101,16.757,14.757 L16.757,14.757z"></path></svg>