<?xml version="1.0" encoding="utf-8"?>
<!-- Generator: Adobe Illustrator 18.1.1, SVG Export Plug-In . SVG Version: 6.00 Build 0)  -->
<svg version="1.1" id="Layer_1" xmlns="http://www.w3.org/2000/svg" xmlns:xlink="http://www.w3.org/1999/xlink" x="0px" y="0px"
	 viewBox="0 0 512 512" enable-background="new 0 0 512 512" xml:space="preserve">
<g id="labels_1_">
	<path id="right_4_" fill="#C5B784" d="M376.7,376.7c66.6-66.6,66.6-174.7,0-241.4L437,75c100,100,100,262.1,0,362L376.7,376.7z"/>
	<path id="left_4_" fill="#E0C861" d="M135.3,135.3c-66.6,66.6-66.6,174.7,0,241.4L75,437C-25,337-25,175,75,75"/>
	<path id="bottom_4_" fill="#88AC5C" d="M135.3,376.7c66.6,66.6,174.7,66.6,241.4,0L437,437C337,537,175,537,75,437L135.3,376.7z"/>
	<path id="top_4_" fill="#1D7E87" d="M376.7,135.3c-30.9-30.9-73.6-50-120.7-50c-47.1,0-89.8,19.1-120.7,50L75,75
		C121.3,28.7,185.3,0,256,0c70.7,0,134.7,28.7,181,75L376.7,135.3z"/>
</g>
<g>
	<circle fill="#FFFFFF" cx="256" cy="256" r="204.8"/>
	<path fill="#174454" d="M51.2,256c0,81,47.1,151.1,115.4,184.3L68.9,172.6C57.6,198.1,51.2,226.3,51.2,256z M394.3,245.7
		c0-25.3-9.1-42.9-16.9-56.5c-10.4-16.9-20.1-31.2-20.1-48c0-18.8,14.2-36.3,34.4-36.3c0.9,0,1.8,0.1,2.6,0.2
		c-36.4-33.4-85-53.8-138.3-53.8c-71.6,0-134.5,36.7-171.1,92.3c4.8,0.1,9.3,0.3,13.2,0.3c21.4,0,54.6-2.6,54.6-2.6
		c11-0.6,12.3,15.6,1.3,16.9c0,0-11.1,1.3-23.4,1.9l74.6,221.8l44.8-134.4L218,160c-11-0.7-21.5-1.9-21.5-1.9
		c-11-0.7-9.7-17.5,1.3-16.9c0,0,33.8,2.6,53.9,2.6c21.4,0,54.6-2.6,54.6-2.6c11-0.6,12.3,15.6,1.3,16.9c0,0-11.1,1.3-23.4,1.9
		l74,220.1l20.4-68.2C389.1,285.2,394.3,263.2,394.3,245.7z M259.6,273.9l-61.5,178.6c18.3,5.4,37.7,8.3,57.9,8.3
		c23.8,0,46.7-4.1,68-11.6c-0.5-0.9-1.1-1.8-1.5-2.8L259.6,273.9z M435.7,157.7c0.9,6.5,1.4,13.5,1.4,21.1
		c0,20.8-3.9,44.1-15.6,73.4L359,433c60.9-35.5,101.8-101.4,101.8-177C460.8,220.4,451.7,186.9,435.7,157.7z"/>
</g>
</svg>
