<?xml version="1.0" standalone="no"?>
<!DOCTYPE svg PUBLIC "-//W3C//DTD SVG 1.1//EN" "http://www.w3.org/Graphics/SVG/1.1/DTD/svg11.dtd" >
<svg xmlns="http://www.w3.org/2000/svg">
<metadata></metadata>
<defs>
<font id="industrylight" horiz-adv-x="660" >
<font-face units-per-em="1000" ascent="800" descent="-200" />
<missing-glyph horiz-adv-x="235" />
<glyph unicode="&#xfb01;" horiz-adv-x="593" d="M328 689h-56q-50 0 -73 -23t-23 -73v-53h162v-40h-162v-500h-46v500h-98v40h99v50q0 140 140 140h57v-41zM505 639h-56v71h56v-71zM500 540v-540h-46v540h46z" />
<glyph unicode="&#xfb02;" horiz-adv-x="588" d="M328 689h-56q-50 0 -73 -23t-23 -73v-53h162v-40h-162v-500h-46v500h-98v40h99v50q0 140 140 140h57v-41zM452 730h46v-730h-46v730z" />
<glyph horiz-adv-x="0" />
<glyph horiz-adv-x="333" />
<glyph unicode=" "  horiz-adv-x="235" />
<glyph unicode="&#x09;" horiz-adv-x="235" />
<glyph unicode="&#xa0;" horiz-adv-x="235" />
<glyph unicode="!" horiz-adv-x="303" d="M168 183h-33l-13 517h59zM184 0h-65v79h65v-79z" />
<glyph unicode="&#x22;" horiz-adv-x="354" d="M140 700l-14 -218h-31l-15 218h60zM273 700l-14 -218h-31l-15 218h60z" />
<glyph unicode="#" horiz-adv-x="748" d="M558 467l-56 -204h126v-40h-137l-61 -223h-44l61 223h-218l-61 -223h-44l61 223h-135v40h146l55 204h-133v40h144l53 193h45l-53 -193h217l53 193h45l-53 -193h127v-40h-138zM513 467h-217l-56 -204h218z" />
<glyph unicode="$" horiz-adv-x="622" d="M331 377l85 -22q72 -18 102.5 -52.5t30.5 -120.5q0 -99 -35 -140.5t-112 -41.5h-70v-89h-43v89h-70q-76 0 -111 41.5t-35 140.5v23h48v-26q0 -76 23.5 -105.5t76.5 -29.5h69v296l-81 21q-72 18 -102.5 51t-30.5 115q0 93 35.5 133t111.5 40h66v89h43v-89h59q76 0 111 -40 t35 -133v-21h-48v23q0 71 -23 99t-77 28h-58v-279zM290 387v269h-65q-53 0 -76.5 -28t-23.5 -99q0 -62 18.5 -85.5t81.5 -39.5zM331 44h69q53 0 76.5 29.5t23.5 105.5q0 68 -18 92.5t-80 40.5l-71 18v-286z" />
<glyph unicode="%" horiz-adv-x="639" d="M135 700h55q81 0 81 -81v-114q0 -81 -81 -81h-55q-81 0 -81 81v114q0 81 81 81zM543 700l-406 -700h-42l406 700h42zM233 505v114q0 25 -11 35.5t-35 10.5h-49q-24 0 -35 -10.5t-11 -35.5v-114q0 -46 46 -46h49q46 0 46 46zM449 276h55q81 0 81 -81v-114q0 -81 -81 -81 h-55q-81 0 -81 81v114q0 81 81 81zM547 81v114q0 25 -11 35.5t-35 10.5h-49q-24 0 -35 -10.5t-11 -35.5v-114q0 -46 46 -46h49q46 0 46 46z" />
<glyph unicode="&#x26;" horiz-adv-x="658" d="M536 338v-192q0 -146 -146 -146h-167q-76 0 -111 43t-35 148q0 86 22 123t68 46q-41 11 -61.5 47t-20.5 112q0 98 35 139.5t111 41.5h151q146 0 146 -146v-54h-48v56q0 100 -100 100h-147q-54 0 -77 -29.5t-23 -107.5t23 -107.5t77 -29.5h387v-44h-84zM488 338h-263 q-54 0 -77 -31t-23 -116q0 -84 23 -115.5t77 -31.5h163q100 0 100 100v194z" />
<glyph unicode="'" horiz-adv-x="221" d="M140 700l-14 -218h-31l-15 218h60z" />
<glyph unicode="(" horiz-adv-x="330" d="M274 720h-26q-52 0 -76 -24t-24 -76v-582q0 -52 24 -76t76 -24h26v-44h-28q-146 0 -146 146v578q0 146 146 146h28v-44z" />
<glyph unicode=")" horiz-adv-x="330" d="M56 764h28q146 0 146 -146v-578q0 -146 -146 -146h-28v44h26q52 0 76 24t24 76v582q0 52 -24 76t-76 24h-26v44z" />
<glyph unicode="*" horiz-adv-x="396" d="M313 409l-34 -24l-82 125l-82 -126l-33 25l94 116l-145 40l13 39l140 -53l-7 149h41l-7 -149l140 53l12 -39l-144 -40z" />
<glyph unicode="+" horiz-adv-x="509" d="M234 182v168h-164v41h164v167h42v-167h163v-41h-163v-168h-42z" />
<glyph unicode="," horiz-adv-x="215" d="M141 80v-59q0 -21 -5.5 -35.5t-24.5 -49.5l-28 -55h-26l52 119h-35v80h67z" />
<glyph unicode="-" horiz-adv-x="411" d="M343 352v-44h-275v44h275z" />
<glyph unicode="." horiz-adv-x="215" d="M141 0h-67v80h67v-80z" />
<glyph unicode="/" horiz-adv-x="445" d="M424 770l-358 -840h-45l358 840h45z" />
<glyph unicode="0" horiz-adv-x="639" d="M409 0h-180q-146 0 -146 146v408q0 146 146 146h180q146 0 146 -146v-408q0 -146 -146 -146zM131 556v-412q0 -52 24 -76t76 -24h176q52 0 76 24t24 76v412q0 52 -23.5 76t-76.5 24h-176q-52 0 -76 -24t-24 -76z" />
<glyph unicode="1" horiz-adv-x="348" d="M188 0v651l-133 -49v46l136 52h45v-700h-48z" />
<glyph unicode="2" horiz-adv-x="593" d="M133 499v57q0 52 24 76t76 24h139q52 0 76 -24t24 -76v-61q0 -29 -17 -46t-66 -46l-170 -97q-90 -52 -117 -79.5t-27 -72.5v-154h447v44h-399v110q0 29 20 48.5t76 52.5l170 97q81 46 106 71t25 72v59q0 146 -146 146h-143q-146 0 -146 -146v-55h48z" />
<glyph unicode="3" horiz-adv-x="600" d="M114 188v-9q0 -76 23.5 -105.5t76.5 -29.5h167q54 0 77 32.5t23 114.5t-23 114.5t-77 32.5h-178v44h170q54 0 77 29.5t23 107.5t-23 107.5t-77 29.5h-151q-54 0 -77 -29.5t-23 -105.5v-9h-48v7q0 98 35 139.5t111 41.5h155q76 0 111 -41.5t35 -140.5q0 -77 -20 -112 t-61 -46q46 -9 67.5 -45.5t21.5 -122.5q0 -106 -34.5 -149t-111.5 -43h-171q-76 0 -111 41.5t-35 139.5v7h48z" />
<glyph unicode="4" horiz-adv-x="617" d="M578 192h-106v-192h-48v192h-380l-5 39l375 469h58v-464h106v-44zM95 236h329v409z" />
<glyph unicode="5" horiz-adv-x="598" d="M134 656v-279q47 40 95 60t121 20q95 0 135.5 -35t40.5 -111v-165q0 -146 -146 -146h-153q-146 0 -146 146v47h48v-49q0 -52 24 -76t76 -24h149q52 0 76 24t24 76v169q0 54 -28 77t-101 23q-69 0 -117 -17.5t-98 -54.5l-48 15v344h433v-44h-385z" />
<glyph unicode="6" horiz-adv-x="611" d="M470 507v49q0 100 -100 100h-139q-100 0 -100 -100v-201q47 40 95.5 60t123.5 20q97 0 138 -35t41 -111v-143q0 -146 -146 -146h-154q-146 0 -146 146v408q0 146 146 146h143q146 0 146 -146v-47h-48zM131 319v-175q0 -52 24 -76t76 -24h150q52 0 76 24t24 76v147 q0 54 -28.5 77t-103.5 23q-71 0 -119.5 -17.5t-98.5 -54.5z" />
<glyph unicode="7" horiz-adv-x="543" d="M502 669l-307 -669h-50l303 656h-409v44h463v-31z" />
<glyph unicode="8" horiz-adv-x="618" d="M458 360q46 -9 67.5 -45.5t21.5 -122.5q0 -106 -34.5 -149t-111.5 -43h-184q-77 0 -111.5 43t-34.5 149q0 86 22 122.5t68 45.5q-41 11 -61.5 46t-20.5 112q0 99 35 140.5t111 41.5h168q76 0 111 -41.5t35 -140.5q0 -77 -20 -112t-61 -46zM391 656h-164q-54 0 -77 -29.5 t-23 -107.5t23 -107.5t77 -29.5h164q54 0 77 29.5t23 107.5t-23 107.5t-77 29.5zM219 44h180q54 0 77 32.5t23 114.5t-23 114.5t-77 32.5h-180q-53 0 -76.5 -32.5t-23.5 -114.5q0 -81 23.5 -114t76.5 -33z" />
<glyph unicode="9" horiz-adv-x="611" d="M140 193v-49q0 -52 24 -76t76 -24h139q52 0 76 24t24 76v208q-47 -40 -95 -60t-123 -20q-98 0 -139 35t-41 111v136q0 146 146 146h154q146 0 146 -146v-408q0 -146 -146 -146h-143q-146 0 -146 146v47h48zM479 389v167q0 52 -23.5 76t-76.5 24h-150q-52 0 -76 -24 t-24 -76v-140q0 -53 29 -76.5t104 -23.5q70 0 118.5 17.5t98.5 55.5z" />
<glyph unicode=":" horiz-adv-x="215" d="M141 460h-67v80h67v-80zM141 0h-67v80h67v-80z" />
<glyph unicode=";" horiz-adv-x="215" d="M141 460h-67v80h67v-80zM141 80v-59q0 -21 -5.5 -35.5t-24.5 -49.5l-28 -55h-26l52 119h-35v80h67z" />
<glyph unicode="&#x3c;" horiz-adv-x="508" d="M66 381v-46l365 -210v47l-328 186l328 188v46z" />
<glyph unicode="=" horiz-adv-x="509" d="M439 469v-44h-369v44h369zM439 313v-43h-369v43h369z" />
<glyph unicode="&#x3e;" horiz-adv-x="508" d="M77 546l328 -188l-328 -186v-47l365 210v46l-365 211v-46z" />
<glyph unicode="?" horiz-adv-x="555" d="M180 700h176q146 0 146 -146v-40q0 -50 -29.5 -80t-108.5 -69l-22 -11q-52 -25 -71.5 -44t-19.5 -50v-81h-48v80q0 50 28.5 77.5t110.5 68.5l22 11q53 26 71.5 44.5t18.5 53.5v42q0 52 -24 76t-76 24h-172q-52 0 -76 -24t-24 -76v-58h-48v56q0 146 146 146zM252 97v-97 h-48v97h48z" />
<glyph unicode="@" horiz-adv-x="916" d="M245 700h426q146 0 146 -146v-359q0 -146 -146 -146h-64l-14 72q-82 -79 -178 -79q-80 0 -117.5 35.5t-37.5 110.5v165q0 75 37.5 110.5t117.5 35.5q96 0 178 -79l14 75h28v-412h34q57 0 84 27t27 84v361q0 57 -27 84t-84 27h-422q-57 0 -84 -26.5t-27 -84.5v-570 q0 -57 27 -84t84 -27h508v-34h-510q-146 0 -146 146v568q0 146 146 146zM593 154v234q-87 73 -177 73q-61 0 -87.5 -24.5t-26.5 -79.5v-173q0 -54 26 -79t87 -25q47 0 88 16.5t90 57.5z" />
<glyph unicode="A" horiz-adv-x="650" d="M486 208h-323l-77 -208h-51l263 700h54l263 -700h-52zM470 252l-146 393l-145 -393h291z" />
<glyph unicode="B" horiz-adv-x="646" d="M101 700h319q77 0 112 -41.5t35 -140.5q0 -74 -20.5 -110t-61.5 -47q46 -10 68 -47t22 -122q0 -106 -35 -149t-112 -43h-327v700zM149 383h269q54 0 77 29.5t23 106.5q0 78 -23 107.5t-77 29.5h-269v-273zM149 44h277q54 0 77 31.5t23 116.5t-23 116t-77 31h-277v-295z " />
<glyph unicode="C" horiz-adv-x="631" d="M413 0h-184q-146 0 -146 146v408q0 146 146 146h184q146 0 146 -146v-57h-48v59q0 52 -23.5 76t-76.5 24h-180q-52 0 -76 -24t-24 -76v-412q0 -52 24 -76t76 -24h180q52 0 76 24t24 76v59h48v-57q0 -146 -146 -146z" />
<glyph unicode="D" horiz-adv-x="665" d="M101 700h334q146 0 146 -146v-408q0 -146 -146 -146h-334v700zM149 44h284q52 0 76 24t24 76v412q0 52 -23.5 76t-76.5 24h-284v-612z" />
<glyph unicode="E" horiz-adv-x="592" d="M101 700h434v-44h-386v-275h329v-44h-329v-293h386v-44h-434v700z" />
<glyph unicode="F" horiz-adv-x="575" d="M101 0v700h434v-44h-386v-284h329v-44h-329v-328h-48z" />
<glyph unicode="G" horiz-adv-x="651" d="M520 503v53q0 52 -24 76t-76 24h-189q-52 0 -76 -24t-24 -76v-412q0 -52 24 -76t76 -24h189q52 0 76 24t24 76v162h-199v44h247v-204q0 -146 -146 -146h-193q-146 0 -146 146v408q0 146 146 146h193q146 0 146 -146v-51h-48z" />
<glyph unicode="H" horiz-adv-x="693" d="M101 0v700h48v-319h395v319h48v-700h-48v337h-395v-337h-48z" />
<glyph unicode="I" horiz-adv-x="250" d="M101 0v700h48v-700h-48z" />
<glyph unicode="J" horiz-adv-x="566" d="M475 700v-554q0 -146 -146 -146h-135q-146 0 -146 146v91h48v-93q0 -52 24 -76t76 -24h131q52 0 76 24t24 76v556h48z" />
<glyph unicode="K" horiz-adv-x="633" d="M561 0l-253 387l-159 -174v-213h-48v700h48v-426l384 426h60l-254 -278l278 -422h-56z" />
<glyph unicode="L" horiz-adv-x="554" d="M101 700h48v-656h361v-44h-409v700z" />
<glyph unicode="M" horiz-adv-x="837" d="M736 700v-700h-47v621l-250 -522h-42l-250 522v-621h-46v700h57l260 -541l261 541h57z" />
<glyph unicode="N" horiz-adv-x="705" d="M558 700h46v-700h-47l-410 628v-628h-46v700h51l406 -623v623z" />
<glyph unicode="O" d="M430 0h-201q-146 0 -146 146v408q0 146 146 146h201q146 0 146 -146v-408q0 -146 -146 -146zM131 556v-412q0 -52 24 -76t76 -24h197q52 0 76 24t24 76v412q0 52 -24 76t-76 24h-197q-52 0 -76 -24t-24 -76z" />
<glyph unicode="P" horiz-adv-x="630" d="M101 700h324q146 0 146 -146v-125q0 -146 -146 -146h-276v-283h-48v700zM149 327h274q100 0 100 100v129q0 100 -100 100h-274v-329z" />
<glyph unicode="Q" d="M229 700h201q146 0 146 -146v-408q0 -146 -146 -146h-76v-128h-48v128h-77q-146 0 -146 146v408q0 146 146 146zM528 144v412q0 52 -24 76t-76 24h-197q-52 0 -76 -24t-24 -76v-412q0 -52 24 -76t76 -24h197q52 0 76 24t24 76z" />
<glyph unicode="R" horiz-adv-x="654" d="M592 0h-53l-165 297h-225v-297h-48v700h323q146 0 146 -146v-111q0 -145 -142 -146zM149 341h273q52 0 76 24t24 76v115q0 52 -24 76t-76 24h-273v-315z" />
<glyph unicode="S" horiz-adv-x="622" d="M491 506v52q0 52 -23.5 76t-76.5 24h-167q-52 0 -76 -24t-24 -76v-56q0 -42 18 -62.5t66 -32.5l208 -52q70 -18 101 -47t31 -91v-71q0 -146 -146 -146h-183q-146 0 -146 146v59h48v-63q0 -52 24 -76t76 -24h179q52 0 76 24t24 76v72q0 42 -18 62.5t-66 32.5l-208 52 q-70 18 -101 47t-31 91v55q0 146 146 146h171q146 0 146 -146v-48h-48z" />
<glyph unicode="T" horiz-adv-x="565" d="M530 656h-224v-656h-48v656h-224v44h496v-44z" />
<glyph unicode="U" horiz-adv-x="659" d="M568 700v-554q0 -146 -146 -146h-185q-146 0 -146 146v554h48v-556q0 -52 24 -76t76 -24h181q52 0 76 24t24 76v556h48z" />
<glyph unicode="V" horiz-adv-x="618" d="M584 700l-247 -700h-56l-247 700h53l222 -646l225 646h50z" />
<glyph unicode="W" horiz-adv-x="908" d="M686 0h-52l-179 624l-179 -624h-54l-188 700h52l163 -638l183 638h46l183 -638l162 638h51z" />
<glyph unicode="X" horiz-adv-x="608" d="M303 318l-217 -318h-53l244 357l-236 343h56l208 -304l209 304h52l-235 -342l244 -358h-55z" />
<glyph unicode="Y" horiz-adv-x="603" d="M325 0h-48v255l-258 445h53l230 -395l230 395h51l-258 -445v-255z" />
<glyph unicode="Z" horiz-adv-x="586" d="M63 34l402 623h-385v43h443v-34l-402 -622h400v-44h-458v34z" />
<glyph unicode="[" horiz-adv-x="344" d="M148 720v-782h125v-44h-173v870h173v-44h-125z" />
<glyph unicode="\" horiz-adv-x="445" d="M424 -70h-45l-358 840h45z" />
<glyph unicode="]" horiz-adv-x="344" d="M71 764h173v-870h-173v44h125v782h-125v44z" />
<glyph unicode="^" horiz-adv-x="440" d="M195 700h49l130 -299h-44l-110 262l-111 -262h-44z" />
<glyph unicode="_" horiz-adv-x="549" d="M543 -42v-38h-537v38h537z" />
<glyph unicode="`" horiz-adv-x="666" d="M375 771h38l-92 144h-61z" />
<glyph unicode="a" horiz-adv-x="544" d="M219 540h106q140 0 140 -140v-400h-46v75q-41 -43 -85 -61t-113 -18q-85 0 -123 37.5t-38 118.5q0 77 33 109t107 41q40 5 219 22v79q0 50 -23 73t-73 23h-102q-50 0 -73 -23t-23 -73v-12h-46v9q0 140 140 140zM419 291l-217 -27q-52 -7 -74 -30.5t-22 -81.5 q0 -62 26 -88.5t90 -26.5q63 0 105.5 16.5t91.5 56.5v181z" />
<glyph unicode="b" horiz-adv-x="567" d="M331 545q89 0 127.5 -34t38.5 -106v-270q0 -72 -38.5 -106t-127.5 -34q-70 0 -113 18.5t-90 60.5v-74h-46v730h46v-264q47 42 90 60.5t113 18.5zM451 133v274q0 51 -27 73.5t-94 22.5q-66 0 -109.5 -16.5t-92.5 -55.5v-321q49 -40 92.5 -56.5t109.5 -16.5q67 0 94 22.5 t27 73.5z" />
<glyph unicode="c" horiz-adv-x="524" d="M210 540h118q140 0 140 -140v-24h-46v26q0 50 -23 73t-73 23h-114q-50 0 -73 -23t-23 -73v-264q0 -50 23 -73t73 -23h114q50 0 73 23t23 73v26h46v-24q0 -140 -140 -140h-118q-140 0 -140 140v260q0 140 140 140z" />
<glyph unicode="d" horiz-adv-x="567" d="M236 545q70 0 113 -18.5t90 -60.5v264h46v-730h-46v74q-47 -42 -90 -60.5t-113 -18.5q-89 0 -127.5 34t-38.5 106v270q0 72 38.5 106t127.5 34zM116 407v-274q0 -51 27 -73.5t94 -22.5q66 0 109.5 16.5t92.5 56.5v321q-49 39 -92.5 55.5t-109.5 16.5q-67 0 -94 -22.5 t-27 -73.5z" />
<glyph unicode="e" horiz-adv-x="541" d="M116 264v-127q0 -49 23 -72.5t73 -23.5h121q50 0 73 23t23 73v31h46v-28q0 -140 -140 -140h-125q-140 0 -140 140v260q0 140 140 140h125q140 0 140 -140v-136h-359zM333 499h-121q-50 0 -73 -23.5t-23 -72.5v-100h313v100q0 50 -23 73t-73 23z" />
<glyph unicode="f" horiz-adv-x="362" d="M328 689h-56q-50 0 -73 -23t-23 -73v-53h162v-40h-162v-500h-46v500h-98v40h99v50q0 140 140 140h57v-41z" />
<glyph unicode="g" horiz-adv-x="567" d="M485 540v-560q0 -140 -140 -140h-217v41h215q50 0 73 23t23 73v104q-47 -42 -90 -60.5t-113 -18.5q-89 0 -127.5 34t-38.5 106v263q0 72 38.5 106t127.5 34q70 0 113 -18.5t90 -60.5v74h46zM116 407v-267q0 -51 27 -73.5t94 -22.5q66 0 109.5 16.5t92.5 56.5v314 q-49 39 -92.5 55.5t-109.5 16.5q-67 0 -94 -22.5t-27 -73.5z" />
<glyph unicode="h" horiz-adv-x="560" d="M128 730v-263q47 42 89 60.5t107 18.5q83 0 120.5 -34t37.5 -106v-406h-46v408q0 51 -25.5 73.5t-87.5 22.5q-61 0 -103.5 -17t-91.5 -56v-431h-46v730h46z" />
<glyph unicode="i" horiz-adv-x="231" d="M143 639h-56v71h56v-71zM138 540v-540h-46v540h46z" />
<glyph unicode="j" horiz-adv-x="229" d="M141 639h-56v71h56v-71zM136 540v-563q0 -59 -26 -86t-97 -52l-40 -12v38l39 16q44 19 61 37t17 56v566h46z" />
<glyph unicode="k" horiz-adv-x="495" d="M424 0l-176 303l-120 -134v-169h-46v730h46v-503l275 313h57l-182 -203l198 -337h-52z" />
<glyph unicode="l" horiz-adv-x="226" d="M90 730h46v-730h-46v730z" />
<glyph unicode="m" horiz-adv-x="870" d="M645 546q76 0 111.5 -34.5t35.5 -105.5v-406h-46v408q0 50 -24 73t-78 23q-53 0 -95 -17.5t-90 -55.5q1 -8 1 -25v-406h-46v408q0 50 -24 73t-78 23q-53 0 -94 -17t-90 -55v-432h-46v540h46v-73q46 42 87 60.5t98 18.5q117 0 140 -85q45 43 89.5 64t102.5 21z" />
<glyph unicode="n" horiz-adv-x="560" d="M128 540v-73q47 42 89 60.5t107 18.5q83 0 120.5 -34t37.5 -106v-406h-46v408q0 51 -25.5 73.5t-87.5 22.5q-61 0 -103.5 -17t-91.5 -56v-431h-46v540h46z" />
<glyph unicode="o" horiz-adv-x="550" d="M210 540h130q140 0 140 -140v-260q0 -140 -140 -140h-130q-140 0 -140 140v260q0 140 140 140zM434 138v264q0 50 -23 73t-73 23h-126q-50 0 -73 -23t-23 -73v-264q0 -50 23 -73t73 -23h126q50 0 73 23t23 73z" />
<glyph unicode="p" horiz-adv-x="567" d="M331 545q89 0 127.5 -34t38.5 -106v-270q0 -72 -38.5 -106t-127.5 -34q-70 0 -113 18.5t-90 60.5v-234h-46v700h46v-74q47 42 90 60.5t113 18.5zM451 133v274q0 51 -27 73.5t-94 22.5q-66 0 -109.5 -16.5t-92.5 -55.5v-321q49 -40 92.5 -56.5t109.5 -16.5q67 0 94 22.5 t27 73.5z" />
<glyph unicode="q" horiz-adv-x="567" d="M236 545q70 0 113 -18.5t90 -60.5v74h46v-700h-46v234q-47 -42 -90 -60.5t-113 -18.5q-89 0 -127.5 34t-38.5 106v270q0 72 38.5 106t127.5 34zM116 407v-274q0 -51 27 -73.5t94 -22.5q66 0 109.5 16.5t92.5 56.5v321q-49 39 -92.5 55.5t-109.5 16.5q-67 0 -94 -22.5 t-27 -73.5z" />
<glyph unicode="r" horiz-adv-x="370" d="M340 496h-35q-85 0 -177 -72v-424h-46v540h46v-79q45 40 85 59.5t92 19.5h35v-44z" />
<glyph unicode="s" horiz-adv-x="509" d="M393 388v9q0 54 -22.5 77.5t-73.5 23.5h-91q-50 0 -73 -23.5t-23 -75.5q0 -37 19.5 -55t62.5 -27l135 -25q67 -13 96 -42.5t29 -90.5q0 -83 -34.5 -121t-105.5 -38h-115q-71 0 -105.5 36t-34.5 114v14h45v-16q0 -56 23 -81t73 -25h112q51 0 73.5 26.5t22.5 89.5 q0 44 -19 63t-67 29l-135 25q-62 13 -91.5 40.5t-29.5 81.5q0 143 140 143h94q71 0 105.5 -35t34.5 -110v-7h-45z" />
<glyph unicode="t" horiz-adv-x="341" d="M163 499v-361q0 -50 23 -73t73 -23h42v-42h-44q-140 0 -140 140v359h-87v41h87v127h45v-127h139v-41h-138z" />
<glyph unicode="u" horiz-adv-x="560" d="M432 0v74q-47 -42 -89 -61t-106 -19q-84 0 -121.5 34.5t-37.5 106.5v405h46v-407q0 -51 26 -73.5t88 -22.5q60 0 102.5 16.5t91.5 55.5v431h46v-540h-46z" />
<glyph unicode="v" horiz-adv-x="487" d="M465 540l-193 -540h-57l-193 540h48l174 -497l174 497h47z" />
<glyph unicode="w" horiz-adv-x="738" d="M568 0h-53l-145 481l-146 -481h-53l-149 540h48l128 -491l148 491h47l149 -491l128 491h46z" />
<glyph unicode="x" horiz-adv-x="490" d="M243 240l-171 -240h-51l198 274l-196 266h53l169 -233l167 233h50l-193 -267l200 -273h-52z" />
<glyph unicode="y" horiz-adv-x="491" d="M469 540l-263 -700h-44l60 160l-200 540h48l175 -482l178 482h46z" />
<glyph unicode="z" horiz-adv-x="450" d="M43 29l307 472h-291v39h348v-28l-307 -472h300v-40h-357v29z" />
<glyph unicode="{" horiz-adv-x="375" d="M193 620v-172q0 -88 -78 -111q35 -9 56.5 -36.5t21.5 -73.5v-189q0 -52 24 -76t76 -24h26v-44h-28q-146 0 -146 146v187q0 90 -85 90h-11v41h11q85 0 85 90v170q0 146 146 146h28v-44h-26q-52 0 -76 -24t-24 -76z" />
<glyph unicode="|" horiz-adv-x="285" d="M122 767h41v-983h-41v983z" />
<glyph unicode="}" horiz-adv-x="375" d="M182 448v172q0 52 -24 76t-76 24h-26v44h28q146 0 146 -146v-170q0 -90 85 -90h11v-41h-11q-85 0 -85 -90v-187q0 -146 -146 -146h-27v44h25q52 0 76 24t24 76v189q0 46 21.5 73.5t56.5 36.5q-78 23 -78 111z" />
<glyph unicode="~" horiz-adv-x="506" d="M134 279v25q0 47 40 47q22 0 44.5 -20t50.5 -40t64 -20t58 23.5t22 66.5v21h-41v-25q0 -47 -40 -47q-20 0 -39.5 12.5t-33 27.5t-36.5 27.5t-50 12.5q-36 0 -58 -23.5t-22 -66.5v-21h41z" />
<glyph unicode="&#xa1;" horiz-adv-x="303" d="M119 540h65v-79h-65v79zM135 357h33l13 -517h-59z" />
<glyph unicode="&#xa2;" horiz-adv-x="541" d="M421 441v20q0 53 -23.5 76.5t-76.5 23.5h-30v-416h30q52 0 76 24t24 76v20h48v-18q0 -146 -146 -146h-31v-101h-40v101h-32q-146 0 -146 146v212q0 146 146 146h32v95h40v-95h31q146 0 146 -146v-18h-48zM253 561h-31q-52 0 -76 -24t-24 -76v-216q0 -52 24 -76t76 -24h31 v416z" />
<glyph unicode="&#xa3;" horiz-adv-x="622" d="M553 44v-44h-511v44h62q11 0 15.5 4.5t4.5 15.5v259h-82v43h82v188q0 146 146 146h133q146 0 146 -146v-65h-48v67q0 52 -23.5 76t-76.5 24h-129q-52 0 -76 -24t-24 -76v-190h240v-43h-240v-279h381z" />
<glyph unicode="&#xa4;" horiz-adv-x="609" d="M497 435v-151q0 -59 -22 -93l73 -73l-32 -32l-73 73q-35 -21 -92 -21h-94q-57 0 -91 21l-73 -73l-32 32l72 72q-22 35 -22 94v151q0 57 21 92l-71 71l32 32l71 -71q34 22 93 22h94q59 0 94 -22l71 71l32 -32l-72 -72q21 -35 21 -91zM258 181h92q52 0 76 24t24 76v157 q0 52 -24 76t-76 24h-92q-52 0 -76 -24t-24 -76v-157q0 -52 24 -76t76 -24z" />
<glyph unicode="&#xa5;" horiz-adv-x="603" d="M352 302h148v-42h-172l-3 -5v-60h175v-42h-175v-153h-48v153h-174v42h174v60l-3 5h-171v42h147l-231 398h53l230 -396l230 396h51z" />
<glyph unicode="&#xa6;" horiz-adv-x="285" d="M122 767h41v-386h-41v386zM163 -216h-41v386h41v-386z" />
<glyph unicode="&#xa7;" horiz-adv-x="534" d="M412 536v14q0 59 -23.5 84t-76.5 25h-89q-53 0 -76.5 -26t-23.5 -88q0 -76 70 -88l166 -26q58 -9 84.5 -39t26.5 -96q0 -104 -55 -129q25 -14 36.5 -35.5t11.5 -66.5q0 -83 -35.5 -121t-110.5 -38h-107q-75 0 -110.5 37.5t-35.5 117.5v14h44v-17q0 -60 23.5 -85.5 t76.5 -25.5h110q53 0 76.5 26t23.5 90q0 76 -70 87l-161 26q-59 10 -87.5 40.5t-28.5 97.5q0 57 14 84.5t42 43.5q-27 14 -38 36.5t-11 63.5q0 83 35.5 120.5t110.5 37.5h86q75 0 110.5 -36.5t35.5 -114.5v-13h-44zM193 217l165 -26q34 -6 50.5 23t16.5 82q0 46 -17.5 67.5 t-56.5 26.5l-169 27q-33 6 -49.5 -21.5t-16.5 -81.5q0 -47 19.5 -68.5t57.5 -28.5z" />
<glyph unicode="&#xa8;" horiz-adv-x="640" d="M273 771h-61v81h61v-81zM428 771h-60v81h60v-81z" />
<glyph unicode="&#xa9;" horiz-adv-x="847" d="M244 700h358q146 0 146 -146v-408q0 -146 -146 -146h-358q-146 0 -146 146v408q0 146 146 146zM711 145v410q0 57 -27 84t-84 27h-354q-57 0 -84 -27t-27 -84v-410q0 -57 27 -84t84 -27h354q57 0 84 27t27 84zM362 579h121q52 0 76 -24t24 -76v-52h-44v55q0 31 -13 44 t-44 13h-119q-30 0 -43.5 -13t-13.5 -44v-264q0 -30 13.5 -43.5t43.5 -13.5h119q31 0 44 13.5t13 43.5v55h44v-52q0 -51 -24 -75.5t-76 -24.5h-121q-100 0 -100 100v258q0 52 24.5 76t75.5 24z" />
<glyph unicode="&#xaa;" horiz-adv-x="371" d="M151 700h79q46 0 68 -22t22 -68v-261h-37v46q-54 -49 -129 -49q-56 0 -80 23.5t-24 81.5q0 55 23 76.5t76 28.5q52 7 134 12v44q0 55 -55 55h-74q-55 0 -55 -55v-13h-38v11q0 46 21.5 68t68.5 22zM283 542l-133 -17q-35 -5 -49 -19t-14 -54q0 -41 15 -56.5t54 -15.5 q69 0 127 45v117zM320 278v-34h-261v34h261z" />
<glyph unicode="&#xab;" horiz-adv-x="375" d="M207 559l-136 -208l136 -207h-47l-129 193v28l129 194h47zM333 559l-136 -208l136 -207h-47l-129 193v28l129 194h47z" />
<glyph unicode="&#xad;" horiz-adv-x="411" d="M343 352v-44h-275v44h275z" />
<glyph unicode="&#xae;" horiz-adv-x="416" d="M131 700h155q69 0 69 -70v-213q0 -70 -69 -70h-155q-70 0 -70 70v213q0 70 70 70zM332 416v215q0 47 -46 47h-154q-47 0 -47 -47v-215q0 -47 47 -47h154q46 0 46 47zM281 590v-41q0 -43 -42 -44l47 -89h-25l-47 89h-56v-89h-24v218h103q23 0 33.5 -10.5t10.5 -33.5z M157 527h79q12 0 16.5 4.5t4.5 16.5v43q0 12 -4.5 16.5t-16.5 4.5h-79v-85z" />
<glyph unicode="&#xaf;" horiz-adv-x="591" d="M422 811v-41h-249v41h249z" />
<glyph unicode="&#xb0;" horiz-adv-x="311" d="M186 486h-63q-60 0 -60 60v94q0 60 60 60h63q60 0 60 -60v-94q0 -60 -60 -60zM179 667h-49q-32 0 -32 -32v-84q0 -32 32 -32h49q32 0 32 32v84q0 17 -7.5 24.5t-24.5 7.5z" />
<glyph unicode="&#xb1;" horiz-adv-x="509" d="M234 224v168h-164v41h164v167h42v-167h163v-41h-163v-168h-42zM70 176h369v-41h-369v41z" />
<glyph unicode="&#xb2;" horiz-adv-x="322" d="M82 707v13q0 53 53 53h60q28 0 40.5 -12.5t12.5 -40.5v-20q0 -13 -8.5 -21t-30.5 -17l-95 -38q-44 -17 -60.5 -30.5t-16.5 -36.5v-95h253v38h-213v52q0 9 9 16t33 16l95 38q42 17 58 31.5t16 41.5v25q0 46 -22 68t-68 22h-66q-46 0 -68 -22t-22 -68v-13h40z" />
<glyph unicode="&#xb3;" horiz-adv-x="326" d="M72 562v-3q0 -33 12.5 -46.5t40.5 -13.5h70q29 0 41 14t12 49q0 34 -12 47.5t-41 13.5h-83v36h79q29 0 41.5 13t11.5 44q0 32 -12.5 44.5t-40.5 12.5h-62q-28 0 -40.5 -13t-12.5 -45v-5h-40v5q0 50 21.5 72.5t68.5 22.5h68q47 0 68.5 -22.5t21.5 -72.5q0 -58 -40 -74 q18 -4 31 -25t13 -55q0 -52 -21.5 -75.5t-68.5 -23.5h-76q-47 0 -68.5 23t-21.5 75v2h40z" />
<glyph unicode="&#xb4;" horiz-adv-x="658" d="M291 771h-38l91 144h61z" />
<glyph unicode="&#xb6;" horiz-adv-x="694" d="M593 0h-48v656h-67v-656h-48v282h-217q-146 0 -146 146v126q0 146 146 146h380v-700z" />
<glyph unicode="&#xb7;" horiz-adv-x="226" d="M147 292h-67v80h67v-80z" />
<glyph unicode="&#xb8;" horiz-adv-x="565" d="M302 0v-50q0 -52 -18.5 -71t-69.5 -19h-48l-30 38h69q32 0 42.5 9.5t10.5 41.5v51h44z" />
<glyph unicode="&#xb9;" horiz-adv-x="198" d="M100 461v307l-72 -24v35l79 30h33v-348h-40z" />
<glyph unicode="&#xba;" horiz-adv-x="375" d="M141 700h93q46 0 68 -22t22 -68v-171q0 -90 -90 -90h-93q-90 0 -90 90v171q0 46 21.5 68t68.5 22zM286 438v173q0 55 -55 55h-88q-55 0 -55 -55v-173q0 -55 55 -55h88q55 0 55 55zM316 278v-34h-257v34h257z" />
<glyph unicode="&#xbb;" horiz-adv-x="374" d="M218 365v-28l-129 -193h-47l137 207l-137 208h47zM343 365v-28l-129 -193h-47l137 207l-137 208h47z" />
<glyph unicode="&#xbc;" horiz-adv-x="606" d="M100 352v307l-72 -24v35l79 30h33v-348h-40zM464 700l-376 -700h-40l376 700h40zM578 85h-56v-85h-39v85h-199l-4 29l204 234h38v-227h56v-36zM330 121h152v170z" />
<glyph unicode="&#xbd;" horiz-adv-x="636" d="M100 352v307l-72 -24v35l79 30h33v-348h-40zM464 700l-376 -700h-40l376 700h40zM396 245v13q0 53 53 53h60q28 0 40.5 -12.5t12.5 -40.5v-20q0 -13 -8.5 -21t-30.5 -17l-95 -38q-44 -17 -60.5 -30.5t-16.5 -36.5v-95h253v38h-213v52q0 9 9 16t33 16l95 38q42 17 58 31.5 t16 41.5v25q0 46 -22 68t-68 22h-66q-46 0 -68 -22t-22 -68v-13h40z" />
<glyph unicode="&#xbe;" horiz-adv-x="734" d="M72 452v-3q0 -33 12.5 -46.5t40.5 -13.5h70q29 0 41 14t12 49q0 34 -12 47.5t-41 13.5h-83v36h79q29 0 41.5 13t11.5 44q0 32 -12.5 44.5t-40.5 12.5h-62q-28 0 -40.5 -13t-12.5 -45v-5h-40v5q0 50 21.5 72.5t68.5 22.5h68q47 0 68.5 -22.5t21.5 -72.5q0 -58 -40 -74 q18 -4 31 -25t13 -55q0 -52 -21.5 -75.5t-68.5 -23.5h-76q-47 0 -68.5 23t-21.5 75v2h40zM592 700l-376 -700h-40l376 700h40zM706 85h-56v-85h-39v85h-199l-4 29l204 234h38v-227h56v-36zM458 121h152v170z" />
<glyph unicode="&#xbf;" horiz-adv-x="555" d="M303 443v97h48v-97h-48zM375 -160h-176q-146 0 -146 146v40q0 51 29.5 80.5t109.5 68.5l22 11q52 26 71 44.5t19 49.5v81h48v-80q0 -50 -28.5 -77.5t-109.5 -67.5l-22 -11q-54 -27 -72.5 -45.5t-18.5 -53.5v-42q0 -52 24 -76t76 -24h172q53 0 76.5 24t23.5 76v58h48v-56 q0 -146 -146 -146z" />
<glyph unicode="&#xc0;" horiz-adv-x="650" d="M332 771l-115 144h61l92 -144h-38zM486 208h-323l-77 -208h-51l263 700h54l263 -700h-52zM470 252l-146 393l-145 -393h291z" />
<glyph unicode="&#xc1;" horiz-adv-x="650" d="M318 771h-38l91 144h61zM486 208h-323l-77 -208h-51l263 700h54l263 -700h-52zM470 252l-146 393l-145 -393h291z" />
<glyph unicode="&#xc2;" horiz-adv-x="650" d="M241 771h-50l111 117h46l110 -117h-49l-84 88zM486 208h-323l-77 -208h-51l263 700h54l263 -700h-52zM470 252l-146 393l-145 -393h291z" />
<glyph unicode="&#xc3;" horiz-adv-x="650" d="M215 769h-39v19q0 42 21.5 65t56.5 23q26 0 45.5 -12t30 -27t27 -27t36.5 -12q40 0 40 47v23h39v-19q0 -42 -21.5 -65t-56.5 -23q-28 0 -48.5 12t-31 27t-26 27t-33.5 12q-40 0 -40 -47v-23zM486 208h-323l-77 -208h-51l263 700h54l263 -700h-52zM470 252l-146 393 l-145 -393h291z" />
<glyph unicode="&#xc4;" horiz-adv-x="650" d="M277 771h-61v81h61v-81zM432 771h-60v81h60v-81zM486 208h-323l-77 -208h-51l263 700h54l263 -700h-52zM470 252l-146 393l-145 -393h291z" />
<glyph unicode="&#xc5;" horiz-adv-x="650" d="M349 771h-49q-55 0 -55 55v39q0 29 13 42t42 13h49q29 0 42 -13t13 -42v-39q0 -29 -13 -42t-42 -13zM280 869v-47q0 -20 20 -20h49q20 0 20 20v47q0 11 -4.5 15.5t-15.5 4.5h-49q-11 0 -15.5 -4.5t-4.5 -15.5zM486 208h-323l-77 -208h-51l263 700h54l263 -700h-52z M470 252l-146 393l-145 -393h291z" />
<glyph unicode="&#xc6;" horiz-adv-x="976" d="M533 656v-270h329v-44h-329v-298h386v-44h-434v226h-288l-128 -226h-54l398 700h506v-44h-386zM485 270v386h-44l-219 -386h263z" />
<glyph unicode="&#xc7;" horiz-adv-x="631" d="M511 497v59q0 52 -23.5 76t-76.5 24h-180q-52 0 -76 -24t-24 -76v-412q0 -52 24 -76t76 -24h180q52 0 76 24t24 76v59h48v-57q0 -146 -146 -146h-58v-50q0 -52 -18.5 -71t-69.5 -19h-48l-30 38h69q32 0 42.5 9.5t10.5 41.5v51h-82q-146 0 -146 146v408q0 146 146 146h184 q146 0 146 -146v-57h-48z" />
<glyph unicode="&#xc8;" horiz-adv-x="592" d="M332 771h38l-92 144h-61zM101 700h434v-44h-386v-275h329v-44h-329v-293h386v-44h-434v700z" />
<glyph unicode="&#xc9;" horiz-adv-x="592" d="M318 771h-38l91 144h61zM101 700h434v-44h-386v-275h329v-44h-329v-293h386v-44h-434v700z" />
<glyph unicode="&#xca;" horiz-adv-x="592" d="M241 771l84 88l84 -88h49l-110 117h-46l-111 -117h50zM101 700h434v-44h-386v-275h329v-44h-329v-293h386v-44h-434v700z" />
<glyph unicode="&#xcb;" horiz-adv-x="592" d="M277 771h-61v81h61v-81zM432 771h-60v81h60v-81zM101 700h434v-44h-386v-275h329v-44h-329v-293h386v-44h-434v700z" />
<glyph unicode="&#xcc;" horiz-adv-x="250" d="M132 771h38l-92 144h-61zM101 0v700h48v-700h-48z" />
<glyph unicode="&#xcd;" horiz-adv-x="250" d="M118 771h-38l91 144h61zM101 0v700h48v-700h-48z" />
<glyph unicode="&#xce;" horiz-adv-x="250" d="M41 771l84 88l84 -88h49l-110 117h-46l-111 -117h50zM101 0v700h48v-700h-48z" />
<glyph unicode="&#xcf;" horiz-adv-x="250" d="M77 771h-61v81h61v-81zM232 771h-60v81h60v-81zM101 0v700h48v-700h-48z" />
<glyph unicode="&#xd0;" horiz-adv-x="665" d="M101 700h334q146 0 146 -146v-408q0 -146 -146 -146h-334v338h-91v44h91v318zM533 144v412q0 52 -23.5 76t-76.5 24h-284v-274h98v-44h-98v-294h284q52 0 76 24t24 76z" />
<glyph unicode="&#xd1;" horiz-adv-x="705" d="M243 769v23q0 47 40 47q18 0 33.5 -12t26 -27t31 -27t48.5 -12q35 0 56.5 23t21.5 65v19h-39v-23q0 -47 -40 -47q-20 0 -36.5 12t-27 27t-30 27t-45.5 12q-35 0 -56.5 -23t-21.5 -65v-19h39zM558 700h46v-700h-47l-410 628v-628h-46v700h51l406 -623v623z" />
<glyph unicode="&#xd2;" d="M338 771h38l-92 144h-61zM430 0h-201q-146 0 -146 146v408q0 146 146 146h201q146 0 146 -146v-408q0 -146 -146 -146zM131 556v-412q0 -52 24 -76t76 -24h197q52 0 76 24t24 76v412q0 52 -24 76t-76 24h-197q-52 0 -76 -24t-24 -76z" />
<glyph unicode="&#xd3;" d="M324 771h-38l91 144h61zM430 0h-201q-146 0 -146 146v408q0 146 146 146h201q146 0 146 -146v-408q0 -146 -146 -146zM131 556v-412q0 -52 24 -76t76 -24h197q52 0 76 24t24 76v412q0 52 -24 76t-76 24h-197q-52 0 -76 -24t-24 -76z" />
<glyph unicode="&#xd4;" d="M247 771l84 88l84 -88h49l-110 117h-46l-111 -117h50zM430 0h-201q-146 0 -146 146v408q0 146 146 146h201q146 0 146 -146v-408q0 -146 -146 -146zM131 556v-412q0 -52 24 -76t76 -24h197q52 0 76 24t24 76v412q0 52 -24 76t-76 24h-197q-52 0 -76 -24t-24 -76z" />
<glyph unicode="&#xd5;" d="M221 769v23q0 47 40 47q18 0 33.5 -12t26 -27t31 -27t48.5 -12q35 0 56.5 23t21.5 65v19h-39v-23q0 -47 -40 -47q-20 0 -36.5 12t-27 27t-30 27t-45.5 12q-35 0 -56.5 -23t-21.5 -65v-19h39zM430 0h-201q-146 0 -146 146v408q0 146 146 146h201q146 0 146 -146v-408 q0 -146 -146 -146zM131 556v-412q0 -52 24 -76t76 -24h197q52 0 76 24t24 76v412q0 52 -24 76t-76 24h-197q-52 0 -76 -24t-24 -76z" />
<glyph unicode="&#xd6;" d="M283 771h-61v81h61v-81zM438 771h-60v81h60v-81zM430 0h-201q-146 0 -146 146v408q0 146 146 146h201q146 0 146 -146v-408q0 -146 -146 -146zM131 556v-412q0 -52 24 -76t76 -24h197q52 0 76 24t24 76v412q0 52 -24 76t-76 24h-197q-52 0 -76 -24t-24 -76z" />
<glyph unicode="&#xd7;" horiz-adv-x="508" d="M284 333l137 -137l-29 -28l-137 137l-137 -140l-29 29l137 140l-137 137l29 28l137 -137l137 140l29 -29z" />
<glyph unicode="&#xd8;" d="M543 754l-33 -69q66 -31 66 -131v-408q0 -146 -146 -146h-201q-21 0 -41 3l-27 -57h-46l33 70q-65 31 -65 130v408q0 146 146 146h201q22 0 40 -3l27 57h46zM131 556v-412q0 -64 37 -86l282 597q-7 1 -22 1h-197q-52 0 -76 -24t-24 -76zM528 144v412q0 65 -38 87 l-282 -598q7 -1 23 -1h197q52 0 76 24t24 76z" />
<glyph unicode="&#xd9;" horiz-adv-x="659" d="M337 771h38l-92 144h-61zM568 700v-554q0 -146 -146 -146h-185q-146 0 -146 146v554h48v-556q0 -52 24 -76t76 -24h181q52 0 76 24t24 76v556h48z" />
<glyph unicode="&#xda;" horiz-adv-x="659" d="M323 771h-38l91 144h61zM568 700v-554q0 -146 -146 -146h-185q-146 0 -146 146v554h48v-556q0 -52 24 -76t76 -24h181q52 0 76 24t24 76v556h48z" />
<glyph unicode="&#xdb;" horiz-adv-x="659" d="M246 771l84 88l84 -88h49l-110 117h-46l-111 -117h50zM568 700v-554q0 -146 -146 -146h-185q-146 0 -146 146v554h48v-556q0 -52 24 -76t76 -24h181q52 0 76 24t24 76v556h48z" />
<glyph unicode="&#xdc;" horiz-adv-x="659" d="M282 771h-61v81h61v-81zM437 771h-60v81h60v-81zM568 700v-554q0 -146 -146 -146h-185q-146 0 -146 146v554h48v-556q0 -52 24 -76t76 -24h181q52 0 76 24t24 76v556h48z" />
<glyph unicode="&#xdd;" horiz-adv-x="603" d="M295 771h-38l91 144h61zM325 0h-48v255l-258 445h53l230 -395l230 395h51l-258 -445v-255z" />
<glyph unicode="&#xde;" horiz-adv-x="633" d="M149 700v-128h279q146 0 146 -146v-132q0 -146 -146 -146h-279v-148h-48v700h48zM149 192h277q100 0 100 100v136q0 100 -100 100h-277v-336z" />
<glyph unicode="&#xdf;" horiz-adv-x="553" d="M482 544q0 -81 -18 -119.5t-55 -47.5q39 -7 60 -47.5t21 -131.5q0 -112 -33 -155t-107 -43h-143v42h141q52 0 74 32.5t22 124.5q0 90 -20 123.5t-70 33.5h-122v41h119q47 0 66 33.5t19 112.5q0 84 -22 114.5t-74 30.5h-120q-49 0 -72.5 -23t-23.5 -73v-592h-46v590 q0 140 140 140h124q73 0 106.5 -41t33.5 -145z" />
<glyph unicode="&#xe0;" horiz-adv-x="544" d="M289 611h38l-92 144h-61zM219 540h106q140 0 140 -140v-400h-46v75q-41 -43 -85 -61t-113 -18q-85 0 -123 37.5t-38 118.5q0 77 33 109t107 41q40 5 219 22v79q0 50 -23 73t-73 23h-102q-50 0 -73 -23t-23 -73v-12h-46v9q0 140 140 140zM419 291l-217 -27 q-52 -7 -74 -30.5t-22 -81.5q0 -62 26 -88.5t90 -26.5q63 0 105.5 16.5t91.5 56.5v181z" />
<glyph unicode="&#xe1;" horiz-adv-x="544" d="M275 611h-38l91 144h61zM219 540h106q140 0 140 -140v-400h-46v75q-41 -43 -85 -61t-113 -18q-85 0 -123 37.5t-38 118.5q0 77 33 109t107 41q40 5 219 22v79q0 50 -23 73t-73 23h-102q-50 0 -73 -23t-23 -73v-12h-46v9q0 140 140 140zM419 291l-217 -27 q-52 -7 -74 -30.5t-22 -81.5q0 -62 26 -88.5t90 -26.5q63 0 105.5 16.5t91.5 56.5v181z" />
<glyph unicode="&#xe2;" horiz-adv-x="544" d="M198 611l84 88l84 -88h49l-110 117h-46l-111 -117h50zM219 540h106q140 0 140 -140v-400h-46v75q-41 -43 -85 -61t-113 -18q-85 0 -123 37.5t-38 118.5q0 77 33 109t107 41q40 5 219 22v79q0 50 -23 73t-73 23h-102q-50 0 -73 -23t-23 -73v-12h-46v9q0 140 140 140z M419 291l-217 -27q-52 -7 -74 -30.5t-22 -81.5q0 -62 26 -88.5t90 -26.5q63 0 105.5 16.5t91.5 56.5v181z" />
<glyph unicode="&#xe3;" horiz-adv-x="544" d="M172 609v23q0 47 40 47q18 0 33.5 -12t26 -27t31 -27t48.5 -12q35 0 56.5 23t21.5 65v19h-39v-23q0 -47 -40 -47q-20 0 -36.5 12t-27 27t-30 27t-45.5 12q-35 0 -56.5 -23t-21.5 -65v-19h39zM219 540h106q140 0 140 -140v-400h-46v75q-41 -43 -85 -61t-113 -18 q-85 0 -123 37.5t-38 118.5q0 77 33 109t107 41q40 5 219 22v79q0 50 -23 73t-73 23h-102q-50 0 -73 -23t-23 -73v-12h-46v9q0 140 140 140zM419 291l-217 -27q-52 -7 -74 -30.5t-22 -81.5q0 -62 26 -88.5t90 -26.5q63 0 105.5 16.5t91.5 56.5v181z" />
<glyph unicode="&#xe4;" horiz-adv-x="544" d="M234 611h-61v81h61v-81zM389 611h-60v81h60v-81zM219 540h106q140 0 140 -140v-400h-46v75q-41 -43 -85 -61t-113 -18q-85 0 -123 37.5t-38 118.5q0 77 33 109t107 41q40 5 219 22v79q0 50 -23 73t-73 23h-102q-50 0 -73 -23t-23 -73v-12h-46v9q0 140 140 140zM419 291 l-217 -27q-52 -7 -74 -30.5t-22 -81.5q0 -62 26 -88.5t90 -26.5q63 0 105.5 16.5t91.5 56.5v181z" />
<glyph unicode="&#xe5;" horiz-adv-x="544" d="M306 611h-49q-55 0 -55 55v39q0 29 13 42t42 13h49q29 0 42 -13t13 -42v-39q0 -29 -13 -42t-42 -13zM306 729h-49q-11 0 -15.5 -4.5t-4.5 -15.5v-47q0 -20 20 -20h49q20 0 20 20v47q0 11 -4.5 15.5t-15.5 4.5zM219 540h106q140 0 140 -140v-400h-46v75q-41 -43 -85 -61 t-113 -18q-85 0 -123 37.5t-38 118.5q0 77 33 109t107 41q40 5 219 22v79q0 50 -23 73t-73 23h-102q-50 0 -73 -23t-23 -73v-12h-46v9q0 140 140 140zM419 291l-217 -27q-52 -7 -74 -30.5t-22 -81.5q0 -62 26 -88.5t90 -26.5q63 0 105.5 16.5t91.5 56.5v181z" />
<glyph unicode="&#xe6;" horiz-adv-x="891" d="M465 264v-127q0 -49 23.5 -72.5t72.5 -23.5h121q50 0 73 23t23 73v31h46v-28q0 -140 -140 -140h-125q-108 0 -132 83q-77 -87 -206 -87q-85 0 -123 37.5t-38 118.5q0 77 33 109t107 41q103 12 219 22v79q0 50 -23 73t-73 23h-102q-50 0 -73 -23t-23 -73v-12h-46v9 q0 140 140 140h106q86 0 117 -57q31 57 117 57h125q140 0 140 -140v-136h-359zM778 303v100q0 50 -23 73t-73 23h-121q-49 0 -72.5 -23.5t-23.5 -72.5v-100h313zM419 291l-217 -27q-52 -7 -74 -30.5t-22 -81.5q0 -62 26 -88.5t90 -26.5q62 0 104.5 17.5t92.5 57.5v179z" />
<glyph unicode="&#xe7;" horiz-adv-x="524" d="M422 376v26q0 50 -23 73t-73 23h-114q-50 0 -73 -23t-23 -73v-264q0 -50 23 -73t73 -23h114q50 0 73 23t23 73v26h46v-24q0 -140 -140 -140h-31v-50q0 -52 -18.5 -71t-69.5 -19h-48l-30 38h69q32 0 42.5 9.5t10.5 41.5v51h-43q-140 0 -140 140v260q0 140 140 140h118 q140 0 140 -140v-24h-46z" />
<glyph unicode="&#xe8;" horiz-adv-x="541" d="M282 611l-115 144h61l92 -144h-38zM116 264v-127q0 -49 23 -72.5t73 -23.5h121q50 0 73 23t23 73v31h46v-28q0 -140 -140 -140h-125q-140 0 -140 140v260q0 140 140 140h125q140 0 140 -140v-136h-359zM333 499h-121q-50 0 -73 -23.5t-23 -72.5v-100h313v100q0 50 -23 73 t-73 23z" />
<glyph unicode="&#xe9;" horiz-adv-x="541" d="M268 611h-38l91 144h61zM116 264v-127q0 -49 23 -72.5t73 -23.5h121q50 0 73 23t23 73v31h46v-28q0 -140 -140 -140h-125q-140 0 -140 140v260q0 140 140 140h125q140 0 140 -140v-136h-359zM333 499h-121q-50 0 -73 -23.5t-23 -72.5v-100h313v100q0 50 -23 73t-73 23z " />
<glyph unicode="&#xea;" horiz-adv-x="541" d="M191 611h-50l111 117h46l110 -117h-49l-84 88zM116 264v-127q0 -49 23 -72.5t73 -23.5h121q50 0 73 23t23 73v31h46v-28q0 -140 -140 -140h-125q-140 0 -140 140v260q0 140 140 140h125q140 0 140 -140v-136h-359zM333 499h-121q-50 0 -73 -23.5t-23 -72.5v-100h313v100 q0 50 -23 73t-73 23z" />
<glyph unicode="&#xeb;" horiz-adv-x="541" d="M227 611h-61v81h61v-81zM382 611h-60v81h60v-81zM116 264v-127q0 -49 23 -72.5t73 -23.5h121q50 0 73 23t23 73v31h46v-28q0 -140 -140 -140h-125q-140 0 -140 140v260q0 140 140 140h125q140 0 140 -140v-136h-359zM333 499h-121q-50 0 -73 -23.5t-23 -72.5v-100h313 v100q0 50 -23 73t-73 23z" />
<glyph unicode="&#xec;" horiz-adv-x="225" d="M114 601h38l-92 144h-61zM136 540v-540h-46v540h46z" />
<glyph unicode="&#xed;" horiz-adv-x="225" d="M117 601h-38l91 144h61zM136 540v-540h-46v540h46z" />
<glyph unicode="&#xee;" horiz-adv-x="225" d="M29 606l84 88l84 -88h49l-110 117h-46l-111 -117h50zM136 540v-540h-46v540h46z" />
<glyph unicode="&#xef;" horiz-adv-x="226" d="M66 621h-61v81h61v-81zM221 621h-60v81h60v-81zM136 540v-540h-46v540h46z" />
<glyph unicode="&#xf0;" horiz-adv-x="555" d="M302 653l53 -16q63 -18 97 -43t33 -78v-376q0 -140 -140 -140h-135q-140 0 -140 140v209q0 72 38.5 106t127.5 34q70 0 113 -18.5t90 -60.5v101q1 36 -19.5 53t-66.5 32l-84 27l-72 -67h-52l85 79l-105 33v37l137 -41l68 63h52zM439 138v237q-49 39 -92.5 55.5 t-109.5 16.5q-67 0 -94 -22.5t-27 -73.5v-213q0 -50 23 -73t73 -23h131q50 0 73 23t23 73z" />
<glyph unicode="&#xf1;" horiz-adv-x="560" d="M174 609v23q0 47 40 47q18 0 33.5 -12t26 -27t31 -27t48.5 -12q35 0 56.5 23t21.5 65v19h-39v-23q0 -47 -40 -47q-20 0 -36.5 12t-27 27t-30 27t-45.5 12q-35 0 -56.5 -23t-21.5 -65v-19h39zM128 540v-73q47 42 89 60.5t107 18.5q83 0 120.5 -34t37.5 -106v-406h-46v408 q0 51 -25.5 73.5t-87.5 22.5q-61 0 -103.5 -17t-91.5 -56v-431h-46v540h46z" />
<glyph unicode="&#xf2;" horiz-adv-x="550" d="M283 611h38l-92 144h-61zM210 540h130q140 0 140 -140v-260q0 -140 -140 -140h-130q-140 0 -140 140v260q0 140 140 140zM434 138v264q0 50 -23 73t-73 23h-126q-50 0 -73 -23t-23 -73v-264q0 -50 23 -73t73 -23h126q50 0 73 23t23 73z" />
<glyph unicode="&#xf3;" horiz-adv-x="550" d="M269 611h-38l91 144h61zM210 540h130q140 0 140 -140v-260q0 -140 -140 -140h-130q-140 0 -140 140v260q0 140 140 140zM434 138v264q0 50 -23 73t-73 23h-126q-50 0 -73 -23t-23 -73v-264q0 -50 23 -73t73 -23h126q50 0 73 23t23 73z" />
<glyph unicode="&#xf4;" horiz-adv-x="550" d="M192 611l84 88l84 -88h49l-110 117h-46l-111 -117h50zM210 540h130q140 0 140 -140v-260q0 -140 -140 -140h-130q-140 0 -140 140v260q0 140 140 140zM434 138v264q0 50 -23 73t-73 23h-126q-50 0 -73 -23t-23 -73v-264q0 -50 23 -73t73 -23h126q50 0 73 23t23 73z" />
<glyph unicode="&#xf5;" horiz-adv-x="550" d="M166 609v23q0 47 40 47q18 0 33.5 -12t26 -27t31 -27t48.5 -12q35 0 56.5 23t21.5 65v19h-39v-23q0 -47 -40 -47q-20 0 -36.5 12t-27 27t-30 27t-45.5 12q-35 0 -56.5 -23t-21.5 -65v-19h39zM210 540h130q140 0 140 -140v-260q0 -140 -140 -140h-130q-140 0 -140 140v260 q0 140 140 140zM434 138v264q0 50 -23 73t-73 23h-126q-50 0 -73 -23t-23 -73v-264q0 -50 23 -73t73 -23h126q50 0 73 23t23 73z" />
<glyph unicode="&#xf6;" horiz-adv-x="550" d="M228 611h-61v81h61v-81zM383 611h-60v81h60v-81zM210 540h130q140 0 140 -140v-260q0 -140 -140 -140h-130q-140 0 -140 140v260q0 140 140 140zM434 138v264q0 50 -23 73t-73 23h-126q-50 0 -73 -23t-23 -73v-264q0 -50 23 -73t73 -23h126q50 0 73 23t23 73z" />
<glyph unicode="&#xf7;" horiz-adv-x="508" d="M288 473h-69v75h69v-75zM76 386h356v-42h-356v42zM288 182h-69v75h69v-75z" />
<glyph unicode="&#xf8;" horiz-adv-x="550" d="M443 598l-31 -70q68 -30 68 -128v-260q0 -140 -140 -140h-130q-13 0 -31 2l-27 -60h-44l31 70q-69 28 -69 128v260q0 140 140 140h130q13 0 33 -2l27 60h43zM116 402v-264q0 -66 41 -85l198 444l-17 1h-126q-50 0 -73 -23t-23 -73zM434 138v264q0 66 -40 85l-197 -444 l15 -1h126q50 0 73 23t23 73z" />
<glyph unicode="&#xf9;" horiz-adv-x="560" d="M285 611h38l-92 144h-61zM432 0v74q-47 -42 -89 -61t-106 -19q-84 0 -121.5 34.5t-37.5 106.5v405h46v-407q0 -51 26 -73.5t88 -22.5q60 0 102.5 16.5t91.5 55.5v431h46v-540h-46z" />
<glyph unicode="&#xfa;" horiz-adv-x="560" d="M271 611h-38l91 144h61zM432 0v74q-47 -42 -89 -61t-106 -19q-84 0 -121.5 34.5t-37.5 106.5v405h46v-407q0 -51 26 -73.5t88 -22.5q60 0 102.5 16.5t91.5 55.5v431h46v-540h-46z" />
<glyph unicode="&#xfb;" horiz-adv-x="560" d="M194 611l84 88l84 -88h49l-110 117h-46l-111 -117h50zM432 0v74q-47 -42 -89 -61t-106 -19q-84 0 -121.5 34.5t-37.5 106.5v405h46v-407q0 -51 26 -73.5t88 -22.5q60 0 102.5 16.5t91.5 55.5v431h46v-540h-46z" />
<glyph unicode="&#xfc;" horiz-adv-x="560" d="M230 611h-61v81h61v-81zM385 611h-60v81h60v-81zM432 0v74q-47 -42 -89 -61t-106 -19q-84 0 -121.5 34.5t-37.5 106.5v405h46v-407q0 -51 26 -73.5t88 -22.5q60 0 102.5 16.5t91.5 55.5v431h46v-540h-46z" />
<glyph unicode="&#xfd;" horiz-adv-x="491" d="M240 611h-38l91 144h61zM469 540l-263 -700h-44l60 160l-200 540h48l175 -482l178 482h46z" />
<glyph unicode="&#xfe;" horiz-adv-x="567" d="M331 545q89 0 127.5 -34t38.5 -106v-270q0 -72 -38.5 -106t-127.5 -34q-70 0 -113 18.5t-90 60.5v-234h-46v890h46v-264q47 42 90 60.5t113 18.5zM451 133v274q0 51 -27 73.5t-94 22.5q-66 0 -109.5 -16.5t-92.5 -55.5v-321q49 -40 92.5 -56.5t109.5 -16.5q67 0 94 22.5 t27 73.5z" />
<glyph unicode="&#xff;" horiz-adv-x="491" d="M199 611h-61v81h61v-81zM354 611h-60v81h60v-81zM469 540l-263 -700h-44l60 160l-200 540h48l175 -482l178 482h46z" />
<glyph unicode="&#x152;" horiz-adv-x="1020" d="M905 381v-44h-329v-293h386v-44h-733q-146 0 -146 146v408q0 146 146 146h733v-44h-386v-275h329zM528 656h-297q-52 0 -76 -24t-24 -76v-412q0 -52 24 -76t76 -24h297v612z" />
<glyph unicode="&#x153;" horiz-adv-x="905" d="M480 264v-127q0 -49 23 -72.5t73 -23.5h121q50 0 73 23t23 73v31h46v-28q0 -140 -140 -140h-125q-85 0 -117 60q-30 -60 -117 -60h-130q-140 0 -140 140v260q0 140 140 140h130q87 0 117 -59q32 59 117 59h125q140 0 140 -140v-136h-359zM793 303v100q0 50 -23 73t-73 23 h-121q-50 0 -73 -23.5t-23 -72.5v-100h313zM434 138v264q0 50 -23 73t-73 23h-126q-50 0 -73 -23t-23 -73v-264q0 -50 23 -73t73 -23h126q50 0 73 23t23 73z" />
<glyph unicode="&#x178;" horiz-adv-x="603" d="M254 771h-61v81h61v-81zM409 771h-60v81h60v-81zM325 0h-48v255l-258 445h53l230 -395l230 395h51l-258 -445v-255z" />
<glyph unicode="&#x2c6;" d="M247 771l84 88l84 -88h49l-110 117h-46l-111 -117h50z" />
<glyph unicode="&#x2dc;" horiz-adv-x="610" d="M195 769v23q0 47 40 47q18 0 33.5 -12t26 -27t31 -27t48.5 -12q35 0 56.5 23t21.5 65v19h-39v-23q0 -47 -40 -47q-20 0 -36.5 12t-27 27t-30 27t-45.5 12q-35 0 -56.5 -23t-21.5 -65v-19h39z" />
<glyph unicode="&#x2000;" horiz-adv-x="460" />
<glyph unicode="&#x2001;" horiz-adv-x="920" />
<glyph unicode="&#x2002;" horiz-adv-x="460" />
<glyph unicode="&#x2003;" horiz-adv-x="920" />
<glyph unicode="&#x2004;" horiz-adv-x="306" />
<glyph unicode="&#x2005;" horiz-adv-x="230" />
<glyph unicode="&#x2006;" horiz-adv-x="153" />
<glyph unicode="&#x2007;" horiz-adv-x="153" />
<glyph unicode="&#x2008;" horiz-adv-x="115" />
<glyph unicode="&#x2009;" horiz-adv-x="184" />
<glyph unicode="&#x200a;" horiz-adv-x="51" />
<glyph unicode="&#x2010;" horiz-adv-x="411" d="M343 352v-44h-275v44h275z" />
<glyph unicode="&#x2011;" horiz-adv-x="411" d="M343 352v-44h-275v44h275z" />
<glyph unicode="&#x2012;" horiz-adv-x="411" d="M343 352v-44h-275v44h275z" />
<glyph unicode="&#x2013;" horiz-adv-x="556" d="M488 353v-44h-420v44h420z" />
<glyph unicode="&#x2014;" horiz-adv-x="815" d="M747 352v-43h-679v43h679z" />
<glyph unicode="&#x2018;" horiz-adv-x="215" d="M74 501v59q0 20 5.5 34t24.5 51l29 55h25l-51 -119h34v-80h-67z" />
<glyph unicode="&#x2019;" horiz-adv-x="215" d="M141 700v-59q0 -21 -5 -34.5t-25 -50.5l-28 -55h-26l52 119h-35v80h67z" />
<glyph unicode="&#x201a;" horiz-adv-x="215" d="M141 80v-59q0 -21 -5.5 -35.5t-24.5 -49.5l-28 -55h-26l52 119h-35v80h67z" />
<glyph unicode="&#x201c;" horiz-adv-x="347" d="M74 501v59q0 20 5.5 34t24.5 51l29 55h25l-51 -119h34v-80h-67zM206 501v59q0 20 5.5 34t24.5 51l29 55h25l-51 -119h34v-80h-67z" />
<glyph unicode="&#x201d;" horiz-adv-x="346" d="M141 700v-59q0 -21 -5 -34.5t-25 -50.5l-28 -55h-26l52 119h-35v80h67zM272 700v-59q0 -21 -5 -34.5t-25 -50.5l-28 -55h-26l52 119h-35v80h67z" />
<glyph unicode="&#x201e;" horiz-adv-x="346" d="M141 80v-59q0 -21 -5 -34.5t-25 -50.5l-28 -55h-26l52 119h-35v80h67zM272 80v-59q0 -21 -5 -34.5t-25 -50.5l-28 -55h-26l52 119h-35v80h67z" />
<glyph unicode="&#x2022;" horiz-adv-x="428" d="M214 285q-43 0 -60 17t-17 60t17 60t60 17q44 0 60.5 -16.5t16.5 -60.5q0 -43 -17 -60t-60 -17z" />
<glyph unicode="&#x2026;" horiz-adv-x="629" d="M141 0h-67v80h67v-80zM348 0h-67v80h67v-80zM555 0h-67v80h67v-80z" />
<glyph unicode="&#x202f;" horiz-adv-x="184" />
<glyph unicode="&#x2039;" horiz-adv-x="249" d="M207 559l-136 -208l136 -207h-47l-129 193v28l129 194h47z" />
<glyph unicode="&#x203a;" horiz-adv-x="249" d="M218 365v-28l-129 -193h-47l137 207l-137 208h47z" />
<glyph unicode="&#x205f;" horiz-adv-x="230" />
<glyph unicode="&#x20ac;" horiz-adv-x="677" d="M558 497v59q0 52 -24 76t-76 24h-184q-52 0 -76 -24t-24 -76v-96h281v-43h-281v-118h281v-43h-281v-112q0 -52 24 -76t76 -24h184q52 0 76 24t24 76v59h48v-57q0 -146 -146 -146h-188q-146 0 -146 146v110h-84v43h84v118h-84v43h84v94q0 146 146 146h188q146 0 146 -146 v-57h-48z" />
<glyph unicode="&#x2122;" horiz-adv-x="747" d="M306 670h-108v-330h-33v330h-108v30h249v-30zM690 700v-360h-31v312l-117 -258h-24l-117 258v-312h-32v360h42l119 -262l119 262h41z" />
<glyph unicode="&#x25fc;" horiz-adv-x="540" d="M0 540h540v-540h-540v540z" />
</font>
</defs>
</svg>
